<?xml version="1.0" encoding="UTF-8"?>
<svg width="224px" height="66px" viewBox="0 0 224 66" version="1.1" xmlns="http://www.w3.org/2000/svg" xmlns:xlink="http://www.w3.org/1999/xlink">
    <!-- Generator: sketchtool 55 (78076) - https://sketchapp.com -->
    <title>3C674E6B-3B7B-40CF-B223-9F3AC6CB892B</title>
    <desc>Created with sketchtool.</desc>
    <defs>
        <polygon id="path-1" points="0.00490962262 0.0538857529 139.244288 0.0538857529 139.244288 40.175533 0.00490962262 40.175533"></polygon>
        <polygon id="path-3" points="3.53486098e-05 0.0571035774 84.0206832 0.0571035774 84.0206832 65.9895514 3.53486098e-05 65.9895514"></polygon>
    </defs>
    <g id="Page-1" stroke="none" stroke-width="1" fill="none" fill-rule="evenodd">
        <g id="AAglobal" transform="translate(-148.000000, -17.000000)">
            <g id="Group-12" transform="translate(148.000000, 17.000000)">
                <g id="Group-2" transform="translate(83.938709, 13.210986)">
                    <mask id="mask-2" fill="white">
                        <use xlink:href="#path-1"></use>
                    </mask>
                    <g id="Clip-1"></g>
                    <text id="GLOBAL" mask="url(#mask-2)" font-family="Montserrat-Bold, Montserrat" font-size="32.8862361" font-weight="bold" letter-spacing="-0.0105583282" fill="#0A56C4">
                        <tspan x="0.00490962262" y="32.0538858">G</tspan>
                        <tspan x="25.3496393" y="32.0538858" letter-spacing="-0.405193182">L</tspan>
                        <tspan x="44.4130979" y="32.0538858">OBAL</tspan>
                    </text>
                </g>
                <polygon id="Fill-3" fill="#0A56C4" points="25.3898758 44.3050153 34.7709505 44.3050153 38.1158289 37.5070356 28.7495359 37.5070356"></polygon>
                <polygon id="Fill-4" fill="#0A56C4" points="34.7642459 25.3350781 39.4352503 34.8264873 45.3104321 22.8881856 40.6515698 13.4210605"></polygon>
                <polygon id="Fill-5" fill="#EC1C24" points="18.5999205 52.7156212 6.84955706 52.7156212 27.5491595 10.6533532 39.299523 10.6533532"></polygon>
                <polygon id="Fill-6" fill="#EC1C24" points="42.3821853 52.7156212 30.6318218 52.7156212 51.3314243 10.6533532 63.0817878 10.6533532"></polygon>
                <polygon id="Fill-7" fill="#EC1C24" points="18.5999205 52.7156212 6.84955706 52.7156212 27.5491595 10.6533532 39.299523 10.6533532"></polygon>
                <polygon id="Fill-8" fill="#EC1C24" points="42.3821853 52.7156212 30.6318218 52.7156212 51.3314243 10.6533532 63.0817878 10.6533532"></polygon>
                <g id="Group-22" transform="translate(0.000000, -0.000000)">
                    <path d="M64.3139447,37.5070884 L55.369457,37.5070884 L58.0887544,43.0322616 C60.2569071,41.2521275 62.3437607,39.4060038 64.3139447,37.5070884" id="Fill-9" fill="#0A56C4"></path>
                    <path d="M52.518286,37.5343817 L46.6304343,49.4483993 L47.3299235,50.8684944 C50.3105396,48.9495183 53.2325569,46.8758626 56.0352651,44.6813141 L52.518286,37.5343817 Z" id="Fill-11" fill="#0A56C4"></path>
                    <path d="M72.0916844,28.9619167 L64.4384802,13.410555 L58.5511564,25.3245726 L64.4706831,37.353148 C67.2749751,34.637546 69.8411768,31.8226957 72.0916844,28.9619167" id="Fill-13" fill="#0A56C4"></path>
                    <g id="Group-17">
                        <mask id="mask-4" fill="white">
                            <use xlink:href="#path-3"></use>
                        </mask>
                        <g id="Clip-16"></g>
                        <path d="M66.8078746,0.336652295 C58.5301453,1.37559179 48.7774175,5.18978786 39.2870642,10.6785348 L39.2216026,10.8110418 C48.2885669,5.62320724 57.5767283,2.02492898 65.4780532,1.03350196 C83.6399615,-1.24709694 87.596695,11.0992842 74.3137902,28.607632 C61.0308854,46.1159797 35.5378019,62.1609432 17.3753656,64.4399584 C-0.788654327,66.7205573 -4.744332,54.3736482 8.53910074,36.8647725 C12.0254607,32.2682043 16.3591265,27.7761636 21.1758359,23.6045681 L21.2048713,23.5443857 C16.2097262,27.8637977 11.7155738,32.5173809 8.10251387,37.2791869 C-5.59216575,55.3328724 -1.51348356,68.060937 17.2127674,65.7101253 C35.9400742,63.3593135 62.2229206,46.8202202 75.9181281,28.7665348 C89.6133357,10.714961 85.5335977,-2.01363157 66.8078746,0.336652295" id="Fill-15" fill="#EC1C24" mask="url(#mask-4)"></path>
                    </g>
                    <path d="M49.091739,52.7156212 L59.9889895,52.7156212 L57.2026467,47.0542456 C54.5746788,49.0539929 51.857493,50.9497408 49.091739,52.7156212" id="Fill-18" fill="#0A56C4"></path>
                    <path d="M73.4862284,31.7950857 C69.8040114,36.1609544 65.436559,40.3916765 60.6784484,44.3051209 L67.8918982,44.3051209 L72.0307629,52.7153572 L83.7811263,52.7153572 L73.4862284,31.7950857 Z" id="Fill-20" fill="#0A56C4"></path>
                </g>
                <polygon id="Fill-23" fill="#0A56C4" points="52.5048769 37.5070884 55.3693514 37.5070884 58.0754509 43.0048099 56.0112977 44.6624675"></polygon>
            </g>
        </g>
    </g>
</svg>