<svg xmlns="http://www.w3.org/2000/svg" xmlns:xlink="http://www.w3.org/1999/xlink" viewBox="0 0 3300.68 1619.2"><defs><style>.cls-1{isolation:isolate;}.cls-11,.cls-2,.cls-3,.cls-34,.cls-35,.cls-5,.cls-50,.cls-66{fill:#fff;}.cls-3{opacity:0.07;}.cls-4{fill:#2058bd;}.cls-5{opacity:0.05;}.cls-41,.cls-42,.cls-43,.cls-46,.cls-47,.cls-48,.cls-50,.cls-58,.cls-6,.cls-7{mix-blend-mode:screen;}.cls-6{fill:url(#_ÂÁ_Ï_ÌÌ_È_ËÂÌÚ_691);}.cls-7{fill:url(#_ÂÁ_Ï_ÌÌ_È_ËÂÌÚ_732);}.cls-8{fill:none;}.cls-9{fill:url(#linear-gradient);}.cls-10{fill:url(#linear-gradient-2);}.cls-11{opacity:0.23;}.cls-12{mix-blend-mode:color-dodge;fill:url(#_ÂÁ_Ï_ÌÌ_È_ËÂÌÚ_482);}.cls-13{fill:#474763;}.cls-14{fill:#02263e;}.cls-15{fill:#ffcaa6;}.cls-16{fill:#353535;}.cls-17{fill:#424242;}.cls-18{fill:#191919;}.cls-19{fill:#282828;}.cls-20{fill:#ffd8c2;}.cls-21{fill:#f8f8ff;}.cls-22{fill:#c1d2e5;}.cls-23{fill:#d3dded;}.cls-24{fill:#7f3900;}.cls-25{fill:#f9bb9b;}.cls-26{fill:#110e0c;}.cls-27{fill:#544336;}.cls-28{fill:#4f2509;}.cls-29{fill:#0058b7;}.cls-30{fill:#50c1ff;}.cls-31{fill:#97dfff;}.cls-32{fill:#d8d8d8;opacity:0.59;}.cls-33{fill:url(#linear-gradient-3);}.cls-34{opacity:0.2;}.cls-35{opacity:0.11;}.cls-36{fill:url(#linear-gradient-4);}.cls-37{fill:url(#linear-gradient-5);}.cls-38{fill:url(#linear-gradient-6);}.cls-39{fill:url(#linear-gradient-7);}.cls-40{fill:url(#linear-gradient-8);}.cls-41{fill:url(#_ÂÁ_Ï_ÌÌ_È_ËÂÌÚ_297);}.cls-42{fill:url(#_ÂÁ_Ï_ÌÌ_È_ËÂÌÚ_297-2);}.cls-43{fill:url(#_ÂÁ_Ï_ÌÌ_È_ËÂÌÚ_297-3);}.cls-44{fill:url(#linear-gradient-9);}.cls-45{fill:url(#linear-gradient-10);}.cls-46{fill:url(#_ÂÁ_Ï_ÌÌ_È_ËÂÌÚ_182);}.cls-47{fill:url(#_ÂÁ_Ï_ÌÌ_È_ËÂÌÚ_182-2);}.cls-48{fill:url(#_ÂÁ_Ï_ÌÌ_È_ËÂÌÚ_182-3);}.cls-49{fill:url(#linear-gradient-11);}.cls-51{fill:#12b7ff;}.cls-52{fill:#f4c9ab;}.cls-53{fill:#ffdbc2;}.cls-54{fill:#afcbf9;}.cls-55{fill:#efc2a3;}.cls-56{fill:#6300ff;}.cls-57,.cls-60,.cls-63{opacity:0.82;}.cls-57{fill:url(#linear-gradient-12);}.cls-59{fill:url(#linear-gradient-13);}.cls-60{fill:url(#linear-gradient-14);}.cls-61{fill:#2b1789;}.cls-62{fill:url(#linear-gradient-15);}.cls-63{fill:url(#linear-gradient-16);}.cls-64{fill:#64d7ff;}.cls-65{fill:#706ffc;}.cls-66{opacity:0.03;}</style><linearGradient id="_ÂÁ_Ï_ÌÌ_È_ËÂÌÚ_691" x1="2999.21" y1="1402.93" x2="2999.21" y2="221.74" gradientUnits="userSpaceOnUse"><stop offset="0" stop-color="#414141"/><stop offset="0.03" stop-color="#3c3c3c"/><stop offset="0.23" stop-color="#222"/><stop offset="0.43" stop-color="#0f0f0f"/><stop offset="0.64" stop-color="#040404"/><stop offset="0.86"/></linearGradient><linearGradient id="_ÂÁ_Ï_ÌÌ_È_ËÂÌÚ_732" x1="2999.21" y1="1520.77" x2="2999.21" y2="709.86" gradientUnits="userSpaceOnUse"><stop offset="0" stop-color="#414141"/><stop offset="0.21" stop-color="#252525"/><stop offset="0.44" stop-color="#111"/><stop offset="0.65" stop-color="#040404"/><stop offset="0.86"/></linearGradient><linearGradient id="linear-gradient" x1="3036.22" y1="1350.73" x2="2946.26" y2="1194.31" gradientUnits="userSpaceOnUse"><stop offset="0.07" stop-color="#afcbf9"/><stop offset="0.55" stop-color="#507fd1"/><stop offset="0.82" stop-color="#1f58bc"/></linearGradient><linearGradient id="linear-gradient-2" x1="4275.1" y1="-3472.89" x2="4275.1" y2="-3118.29" gradientTransform="translate(2317.02 -4045.41) rotate(120.27)" gradientUnits="userSpaceOnUse"><stop offset="0.07" stop-color="#afcbf9"/><stop offset="0.59" stop-color="#5180d2"/><stop offset="0.89" stop-color="#2058bd"/></linearGradient><linearGradient id="_ÂÁ_Ï_ÌÌ_È_ËÂÌÚ_482" x1="4135.74" y1="-3434.71" x2="4352.27" y2="-3144.26" gradientTransform="translate(2317.02 -4045.41) rotate(120.27)" gradientUnits="userSpaceOnUse"><stop offset="0.02" stop-color="#ae7dad"/><stop offset="0.02" stop-color="#ad7cac"/><stop offset="0.1" stop-color="#795778"/><stop offset="0.19" stop-color="#4d384d"/><stop offset="0.27" stop-color="#2c1f2b"/><stop offset="0.34" stop-color="#140e13"/><stop offset="0.41" stop-color="#050405"/><stop offset="0.47"/><stop offset="0.53" stop-color="#0e0a0d"/><stop offset="0.64" stop-color="#312331"/><stop offset="0.79" stop-color="#6b4d6a"/><stop offset="0.95" stop-color="#ae7dad"/></linearGradient><linearGradient id="linear-gradient-3" x1="538.49" y1="1486.37" x2="570.92" y2="1432.02" xlink:href="#linear-gradient"/><linearGradient id="linear-gradient-4" x1="496.63" y1="1486.28" x2="614.71" y2="1486.28" gradientTransform="matrix(1, 0, 0, 1, 0, 0)" xlink:href="#linear-gradient-2"/><linearGradient id="linear-gradient-5" x1="1140.31" y1="1468.66" x2="1172.74" y2="1414.3" xlink:href="#linear-gradient"/><linearGradient id="linear-gradient-6" x1="1098.45" y1="1468.57" x2="1216.53" y2="1468.57" gradientTransform="matrix(1, 0, 0, 1, 0, 0)" xlink:href="#linear-gradient-2"/><linearGradient id="linear-gradient-7" x1="198.67" y1="1387.56" x2="277.96" y2="1254.66" xlink:href="#linear-gradient"/><linearGradient id="linear-gradient-8" x1="96.32" y1="1387.34" x2="385.04" y2="1387.34" gradientTransform="matrix(1, 0, 0, 1, 0, 0)" xlink:href="#linear-gradient-2"/><linearGradient id="_ÂÁ_Ï_ÌÌ_È_ËÂÌÚ_297" x1="241.33" y1="405.43" x2="236.47" y2="1244.58" gradientUnits="userSpaceOnUse"><stop offset="0"/><stop offset="0.61" stop-color="#090909"/><stop offset="1"/></linearGradient><linearGradient id="_ÂÁ_Ï_ÌÌ_È_ËÂÌÚ_297-2" x1="151.89" y1="756.35" x2="149.05" y2="1246.88" xlink:href="#_ÂÁ_Ï_ÌÌ_È_ËÂÌÚ_297"/><linearGradient id="_ÂÁ_Ï_ÌÌ_È_ËÂÌÚ_297-3" x1="318.5" y1="727.23" x2="315.46" y2="1252.21" xlink:href="#_ÂÁ_Ï_ÌÌ_È_ËÂÌÚ_297"/><linearGradient id="linear-gradient-9" x1="2377.9" y1="1500.16" x2="2420.3" y2="1429.09" xlink:href="#linear-gradient"/><linearGradient id="linear-gradient-10" x1="2323.16" y1="1500.05" x2="2477.56" y2="1500.05" gradientTransform="matrix(1, 0, 0, 1, 0, 0)" xlink:href="#linear-gradient-2"/><linearGradient id="_ÂÁ_Ï_ÌÌ_È_ËÂÌÚ_182" x1="2340.77" y1="1076.87" x2="2338.71" y2="1432.64" gradientUnits="userSpaceOnUse"><stop offset="0"/><stop offset="0.25" stop-color="#090909"/><stop offset="1" stop-color="#090909"/></linearGradient><linearGradient id="_ÂÁ_Ï_ÌÌ_È_ËÂÌÚ_182-2" x1="2451.7" y1="1021.61" x2="2449.64" y2="1377.39" xlink:href="#_ÂÁ_Ï_ÌÌ_È_ËÂÌÚ_182"/><linearGradient id="_ÂÁ_Ï_ÌÌ_È_ËÂÌÚ_182-3" x1="2403.34" y1="744.92" x2="2399.53" y2="1403.59" xlink:href="#_ÂÁ_Ï_ÌÌ_È_ËÂÌÚ_182"/><linearGradient id="linear-gradient-11" x1="1046.21" y1="389.13" x2="1403.41" y2="389.13" gradientTransform="translate(-746.99 -264.5) rotate(17.54)" gradientUnits="userSpaceOnUse"><stop offset="0.21" stop-color="#fc94b8"/><stop offset="0.45" stop-color="#ed6c7e"/><stop offset="0.7" stop-color="#df4747"/><stop offset="0.82" stop-color="#da3831"/></linearGradient><linearGradient id="linear-gradient-12" x1="181.83" y1="391.17" x2="285.99" y2="391.17" gradientTransform="translate(430.78 -19.89) rotate(56.47)" gradientUnits="userSpaceOnUse"><stop offset="0.55" stop-color="#da3831"/><stop offset="0.82" stop-color="#da3831"/></linearGradient><linearGradient id="linear-gradient-13" x1="2234.44" y1="152.74" x2="2493.01" y2="152.74" gradientTransform="matrix(1, 0, 0, 1, 0, 0)" xlink:href="#linear-gradient-11"/><linearGradient id="linear-gradient-14" x1="2397.84" y1="111.83" x2="2468.92" y2="111.83" gradientTransform="translate(2533.41 -2322.07) rotate(89.72)" xlink:href="#linear-gradient-12"/><linearGradient id="linear-gradient-15" x1="642.13" y1="1335.31" x2="949.24" y2="1335.31" gradientTransform="matrix(1, 0, 0, 1, 0, 0)" xlink:href="#linear-gradient-11"/><linearGradient id="linear-gradient-16" x1="671.4" y1="1289.12" x2="747.51" y2="1289.12" gradientTransform="translate(1922.39 456.1) rotate(84.35)" xlink:href="#linear-gradient-12"/></defs><title>c-2</title><g class="cls-1"><g id="Layer_2" data-name="Layer 2"><g id="_ÎÓÈ_1" data-name="—ÎÓÈ_1"><rect class="cls-2" width="3294.44" height="1619.2"/><path class="cls-3" d="M1670.93,626.41a13,13,0,1,1,13-13A13,13,0,0,1,1670.93,626.41Z"/><path class="cls-4" d="M1679.82,613.38a8.89,8.89,0,1,1-8.89-8.89A8.89,8.89,0,0,1,1679.82,613.38Z"/><path class="cls-2" d="M1674.65,613.38a3.72,3.72,0,1,1-3.72-3.72A3.73,3.73,0,0,1,1674.65,613.38Z"/><path class="cls-3" d="M980.24,128.16A24.18,24.18,0,1,1,1004.41,104,24.2,24.2,0,0,1,980.24,128.16Z"/><circle class="cls-4" cx="980.24" cy="103.99" r="16.5"/><path class="cls-2" d="M987.14,104a6.9,6.9,0,1,1-6.9-6.9A6.9,6.9,0,0,1,987.14,104Z"/><path class="cls-3" d="M155.13,264.94a44.68,44.68,0,1,1,44.68-44.68A44.73,44.73,0,0,1,155.13,264.94Z"/><path class="cls-4" d="M185.63,220.26a30.5,30.5,0,1,1-30.5-30.49A30.5,30.5,0,0,1,185.63,220.26Z"/><path class="cls-2" d="M167.88,220.26a12.75,12.75,0,1,1-12.75-12.75A12.75,12.75,0,0,1,167.88,220.26Z"/><circle class="cls-3" cx="478.17" cy="412.06" r="69.01" transform="translate(28.43 854.97) rotate(-85.31)"/><circle class="cls-4" cx="478.17" cy="412.06" r="47.1" transform="translate(38.43 864.9) rotate(-86.59)"/><path class="cls-2" d="M497.87,412.06a19.7,19.7,0,1,1-19.7-19.7A19.69,19.69,0,0,1,497.87,412.06Z"/><circle class="cls-3" cx="2718.15" cy="82.96" r="65.9" transform="translate(2411.27 2785) rotate(-85.27)"/><circle class="cls-4" cx="2718.15" cy="82.96" r="44.98" transform="translate(2442.71 2788.39) rotate(-85.93)"/><path class="cls-2" d="M2737,83a18.81,18.81,0,1,1-18.8-18.81A18.81,18.81,0,0,1,2737,83Z"/><path class="cls-3" d="M352.6,182.22a17,17,0,1,1,17-17A17,17,0,0,1,352.6,182.22Z"/><path class="cls-4" d="M364.22,165.2a11.62,11.62,0,1,1-11.62-11.61A11.62,11.62,0,0,1,364.22,165.2Z"/><path class="cls-2" d="M357.46,165.2a4.86,4.86,0,1,1-4.86-4.86A4.87,4.87,0,0,1,357.46,165.2Z"/><path class="cls-3" d="M580.09,138a17,17,0,1,1,17-17A17,17,0,0,1,580.09,138Z"/><path class="cls-4" d="M591.71,121a11.62,11.62,0,1,1-11.62-11.62A11.62,11.62,0,0,1,591.71,121Z"/><path class="cls-2" d="M585,121a4.86,4.86,0,1,1-4.86-4.86A4.87,4.87,0,0,1,585,121Z"/><path class="cls-3" d="M824,159.77a53.12,53.12,0,1,1,53.11-53.11A53.17,53.17,0,0,1,824,159.77Z"/><path class="cls-4" d="M860.21,106.66A36.26,36.26,0,1,1,824,70.4,36.25,36.25,0,0,1,860.21,106.66Z"/><path class="cls-2" d="M839.12,106.66A15.17,15.17,0,1,1,824,91.49,15.16,15.16,0,0,1,839.12,106.66Z"/><path class="cls-3" d="M318.75,488.78a8,8,0,1,1,8-8A8,8,0,0,1,318.75,488.78Z"/><path class="cls-4" d="M324.21,480.78a5.47,5.47,0,1,1-5.46-5.47A5.46,5.46,0,0,1,324.21,480.78Z"/><path class="cls-2" d="M321,480.78a2.29,2.29,0,1,1-2.28-2.29A2.28,2.28,0,0,1,321,480.78Z"/><path class="cls-3" d="M1524.65,486.5a8,8,0,1,1,8-8A8,8,0,0,1,1524.65,486.5Z"/><path class="cls-4" d="M1530.12,478.49a5.47,5.47,0,1,1-5.47-5.47A5.47,5.47,0,0,1,1530.12,478.49Z"/><path class="cls-2" d="M1526.94,478.49a2.29,2.29,0,1,1-2.29-2.29A2.3,2.3,0,0,1,1526.94,478.49Z"/><path class="cls-3" d="M1029.57,278.52a29.7,29.7,0,1,1,29.7-29.69A29.73,29.73,0,0,1,1029.57,278.52Z"/><path class="cls-4" d="M1049.84,248.83a20.27,20.27,0,1,1-20.27-20.28A20.27,20.27,0,0,1,1049.84,248.83Z"/><path class="cls-2" d="M1038,248.83a8.48,8.48,0,1,1-8.47-8.48A8.47,8.47,0,0,1,1038,248.83Z"/><path class="cls-3" d="M74.34,428.07a8,8,0,1,1,8-8A8,8,0,0,1,74.34,428.07Z"/><path class="cls-4" d="M79.81,420.06a5.47,5.47,0,1,1-5.47-5.46A5.47,5.47,0,0,1,79.81,420.06Z"/><path class="cls-2" d="M76.63,420.06a2.29,2.29,0,1,1-2.29-2.28A2.29,2.29,0,0,1,76.63,420.06Z"/><path class="cls-3" d="M238.8,663.55a9.92,9.92,0,1,1,9.92-9.92A9.93,9.93,0,0,1,238.8,663.55Z"/><path class="cls-4" d="M245.57,653.63a6.77,6.77,0,1,1-6.77-6.77A6.77,6.77,0,0,1,245.57,653.63Z"/><path class="cls-2" d="M241.63,653.63a2.83,2.83,0,1,1-2.83-2.83A2.83,2.83,0,0,1,241.63,653.63Z"/><path class="cls-5" d="M3077.6,1053.06c-49.81-29.34-118.49-29.34-169.29,0l-352.9,203.74c-50.8,29.33-50.8,77.07,0,106.4l352.9,203.74c50.8,29.34,133.48,29.34,169.29,0l215.84-124.61V1177.67Z"/><path class="cls-6" d="M3300.68,493.69s-83.28,633-102.19,775.38q-.57,4.35-1.07,8.07a16.51,16.51,0,0,1-4.77,3.93l-24.73,14.11-68.79,39.28-29.24,16.7L3034,1371.65l-36,20.54h0l-3.36,1.92a23.58,23.58,0,0,1-2.81,1.37c-8.62-.09-17.24-.5-25.79-1.22L2797,1295.57a11.66,11.66,0,0,1-2.6-2h0c-.48-1.92-.87-3.5-.9-3.67l-.48-4.08-95.28-798.61Z"/><path class="cls-7" d="M3233.58,715.14s-47.11,358.1-70.08,532.07c-2.82,21.29-5.27,39.84-7.22,54.62l-57.15,32.63-29.24,16.7L3034,1371.65l-36,20.54h0l-3.36,1.92a23.58,23.58,0,0,1-2.81,1.37c-7.87,3.27-18.16,3.23-24.34-.37l-1.45-.85-128.55-75-6.85-57.39-65.82-551.73Z"/><path class="cls-8" d="M3046.21,1135.44c-25.23-14.56-66.29-14.56-91.52,0l-256.58,148.14c-25.23,14.57-25.23,38.27,0,52.84l256.59,148.14c25.22,14.56,66.28,14.56,91.51,0l241.58-148.14a54.79,54.79,0,0,0,5.65-3.74v-45.36a54.79,54.79,0,0,0-5.65-3.74Z"/><path class="cls-2" d="M3287.79,1336.42l-241.58,148.14c-25.23,14.56-66.29,14.56-91.51,0l-256.59-148.14c-25.23-14.57-25.23-38.27,0-52.84l256.58-148.14c25.23-14.56,66.29-14.56,91.52,0l241.58,148.14a54.79,54.79,0,0,1,5.65,3.74v-25l-241-139.13c-21.94-21.33-82-21.33-119,0l-256.59,148.14c-36.94,21.33-36.94,56,0,77.36l256.59,148.14c37,21.33,97.06,21.33,119,0l241-139.13v-25A54.79,54.79,0,0,1,3287.79,1336.42Z"/><path class="cls-9" d="M3199.32,1272.43v.07a8.14,8.14,0,0,1-1.9,4.64,16.51,16.51,0,0,1-4.77,3.93l-24.73,14.11-11.64,6.65-57.15,32.63-29.24,16.7L3034,1371.65l-36,20.54h0l-3.36,1.92a23.58,23.58,0,0,1-2.81,1.37c-7.87,3.27-18.16,3.23-24.34-.37l-1.45-.85-128.55-75L2797,1295.57a11.66,11.66,0,0,1-2.6-2h0a7.06,7.06,0,0,1-2-4.31v0a7.53,7.53,0,0,1,0-1,7.12,7.12,0,0,1,.67-2.47,13.89,13.89,0,0,1,6-5.91l31.64-18.07,74.28-42.41,18.24-10.42,73.83-42.15c8.06-4.6,20.21-5,27.15-1l139.35,81.35,31.17,18.2a9.94,9.94,0,0,1,3.82,3.66A6.24,6.24,0,0,1,3199.32,1272.43Z"/><path class="cls-10" d="M2994.38,1430.12l198-113c4.3-2.45,6.56-5.59,6.68-8.61V1308h0l.28-35.52c-.14,3-2.4,6.12-6.68,8.57l-24.73,14.11-173.27,98.94c-8.05,4.6-20.21,5-27.15,1l-144-84L2797,1295.57c-2.93-1.71-4.46-4-4.64-6.31l-.28,35.1v.06c-.16,2.67,1.37,5.24,4.65,7.16l170.52,99.54C2974.16,1435.17,2986.32,1434.72,2994.38,1430.12Z"/><path class="cls-11" d="M3099.13,1334.46l20.19-113,75.35,44c3.22,1.88,4.75,4.4,4.65,7v.07c-.14,3-2.4,6.12-6.68,8.57l-24.73,14.11Z"/><polygon class="cls-11" points="3034 1371.65 3066.36 1190.51 3095.54 1207.54 3069.89 1351.16 3034 1371.65"/><path class="cls-11" d="M2967.5,1395.11l-70.24-41L2923.17,1209l73.83-42.16c8.06-4.6,20.21-5,27.15-1l12.94,7.55L2998,1392.2h0l-3.36,1.92C2986.6,1398.72,2974.44,1399.16,2967.5,1395.11Z"/><path class="cls-11" d="M2882.42,1345.44,2797,1295.57c-2.93-1.71-4.46-4-4.64-6.31v0a6,6,0,0,1,0-1c.21-3,2.47-6,6.66-8.38l105.91-60.47Z"/><path class="cls-12" d="M3192.55,1272.6a8.27,8.27,0,0,1-3.18,2.74l-24.72,14.11-68.79,39.28-29.24,16.7-35.89,20.49-36,20.54-1.54.89h0l-1.82,1a24.55,24.55,0,0,1-11,2.87c-3.84.14-7.33-.53-9.59-1.85l-170.52-99.54a4,4,0,0,1-1.37-1.14,1.63,1.63,0,0,1,.17-.36,8.4,8.4,0,0,1,3.17-2.73l105.92-60.47,18.25-10.42,73.83-42.16a24.68,24.68,0,0,1,11-2.87c3.83-.14,7.33.53,9.58,1.85l170.52,99.54a4,4,0,0,1,1.37,1.14,1.33,1.33,0,0,1-.16.35m5.7,3.33a7.59,7.59,0,0,0,1.08-3.43v-.07c.1-2.62-1.43-5.14-4.65-7l-170.52-99.54c-6.94-4-19.09-3.61-27.15,1L2923.17,1209l-18.25,10.42L2799,1279.91a14.79,14.79,0,0,0-5.6,5.13,7.5,7.5,0,0,0-1.06,3.25,6,6,0,0,0,0,1v0c.18,2.36,1.71,4.6,4.64,6.31l170.52,99.54c6.94,4.05,19.1,3.61,27.15-1l3.36-1.92h0l36-20.55,35.89-20.49,29.24-16.7,68.79-39.28,24.73-14.11a14.88,14.88,0,0,0,5.6-5.14Z"/><path class="cls-2" d="M3045.51,1339.12c.06-.28.13-.57.19-.85q1.23-7.38,2.71-14.72c.64-2.72-3.3-5.35-8.33-5.78l-1.44-.13c-1.71-.15-3.41-.31-5.11-.5a248.23,248.23,0,0,1-30.58-5.31c-4.27-1-8.88-.26-10.52,1.93l-.7,1c-1.31,1.81-2.61,3.62-3.87,5.44v0l-.58.84h0c-1.42,1.32-5.25,1.68-9.3.52a133,133,0,0,1-31-13c-9-5.42-16.39-11.7-21.67-18.39-1.91-2.4-1.22-4.64,1.06-5.45h0l1.44-.32h0q4.71-1.06,9.37-2.17l1.66-.38c3.76-.92,5.17-3.61,3.51-6.13a65.82,65.82,0,0,1-8.48-18.06c-.28-1-.53-2-.76-3l-.18-.85c-.64-3-5.05-5.35-9.71-5q-12.39,1.26-24.76,2.55l-1.46.11-.76,0,0,0c-5.52.9-10.43,5.23-10.5,11.72-.46,19.65,14.36,41,40.24,56.7h0l1.45.85,1.44.85h0c26.56,15.28,62.88,24.1,96.33,24,11.06,0,18.44-2.83,20-6.06l.08,0C3045.45,1339.42,3045.48,1339.27,3045.51,1339.12Z"/><path class="cls-13" d="M2962.75,1249.71v2.83a5.7,5.7,0,0,0,2.8,5,16.82,16.82,0,0,0,6.93,2.08h.66c5.33,0,20.34-3.47,23.94-6l.3-.21a15.59,15.59,0,0,0,5.27-6.88l7.8-20.31a38.64,38.64,0,0,1-3.88.94l-7,18.19a12.22,12.22,0,0,1-4.15,5.43l-.2.13c-3.17,2.2-18.29,5.71-22.47,5.38a12.41,12.41,0,0,1-9.14-4.76A4.54,4.54,0,0,1,2962.75,1249.71Z"/><path class="cls-14" d="M2962.75,1249.71a3.58,3.58,0,0,0,.85,1.86,12.41,12.41,0,0,0,9.14,4.76c4.18.33,19.3-3.18,22.47-5.38l.2-.13a12.22,12.22,0,0,0,4.15-5.43l7-18.19a40.31,40.31,0,0,1-6.12.69l-4.53,9.14a13.38,13.38,0,0,1-9.73,7.45c-5.09.83-10-.7-11.25-2-2.77-2.72-.3-5.94.9-7.21-2.62,2.44-6.47,4.08-9.38,7.29C2964.58,1244.66,2962.68,1246.86,2962.75,1249.71Z"/><path class="cls-15" d="M2975,1242.5c1.29,1.28,6.15,2.81,11.24,2a13.36,13.36,0,0,0,9.73-7.45l4.53-9.14c-.89,0-1.79,0-2.72,0a42,42,0,0,1-15.6-3.51c-2.53,4.29-5.48,10-5.73,10.33h0l-.11.11C2975.54,1235.55,2971.74,1239.36,2975,1242.5Z"/><path class="cls-13" d="M3013.4,1247.3a1.21,1.21,0,0,0,.72,1,3.9,3.9,0,0,0,3.46,0,1.22,1.22,0,0,0,.73-1,1,1,0,0,0-.19-.56c-.48-1.45-1-15.31-1-17.91a19.07,19.07,0,0,1,.86-5.55c-.34.17-.67.35-1,.51-1.09.51-2.25,1-3.51,1.47a19.09,19.09,0,0,1,.72,4.64c0,2.18-.32,15.7-.69,17A1,1,0,0,0,3013.4,1247.3Z"/><path class="cls-14" d="M3066.43,1271.06a23.68,23.68,0,0,0,4,9.55l.06.08a14.22,14.22,0,0,0,11.86,4.93,16.33,16.33,0,0,0,9.34-3.41c4.46-3.56,5.51-8.6,6-14,.06-.71.1-1.43.13-2.14a32.91,32.91,0,0,0-1.79-11.89c-.62.35-1.28.67-2,1l-.39.17c-.41.19-.82.38-1.26.56l-.18.06a9.21,9.21,0,0,1-3.68,7.15c-4,2.83-15.23,4.31-19-6.07-.3-.08-.6-.17-.89-.27-.64-.2-1.26-.42-1.84-.64A30.58,30.58,0,0,0,3066.43,1271.06Z"/><path class="cls-15" d="M3069.48,1257c3.76,10.38,14.94,8.9,19,6.07a9.21,9.21,0,0,0,3.68-7.15,34.76,34.76,0,0,1-22.67,1.08Z"/><path class="cls-15" d="M3078.24,919.05h0c-.11,7.08,3.68,16.25,3.68,16.25l7.63,23.13c1.79,5.2,4,5,4,5,1.67-.2.84-5.07.84-5.07l-3.13-16.32,7.72,21.18c2.17,4.16,3.33,3.85,3.33,3.85,2-.58,1.14-4.76,1.14-4.76l-5.37-21.94,9.08,23.05c1.57,2.76,3.24,3,3.24,3,2-.07,1.27-3.7,1.27-3.7l-6.78-25.53c.35.8,6,13.7,8.23,18s4.79,5.23,4.79,5.23c2.09-.74,1.21-4.25,1.21-4.25l-11.74-30.7c-1.39-2.74.9-3.61.9-3.61l10.54,2.76c6.26,1.48,6.72-3.91,6.72-3.91-2.71.7-23.06-8.82-23.06-8.82l-10.22-5.95C3082.23,905.53,3079,915.67,3078.24,919.05Z"/><path class="cls-16" d="M3055.87,955.49a286.74,286.74,0,0,1,6.19,41.35c.64,9.77,1.66,24.13,2.7,38.29a878.83,878.83,0,0,0,11.79,92.45s4.37,24.08,8.72,51.8c.69,4.33,1.38,8.75,2,13.18l.75,5.08c.2,1.37.41,2.73.59,4.09s.4,2.73.59,4.08c.22,1.65.45,3.29.68,4.92.66,4.81,1.27,9.49,1.8,14,.14,1.24.28,2.47.43,3.67.1,1,.21,1.91.31,2.84s.23,2.16.33,3.2c0,.24.06.47.07.71q.33,3.24.57,6.2c.09,1.13.17,2.24.24,3.3,0,.33,0,.65.07,1v0c.05.82.09,1.63.13,2.4v.09c0,.45,0,.89.06,1.32,0,.26,0,.51,0,.76,0,.51,0,1,0,1.51,0,.33,0,.66,0,1v0c0,.75,0,1.45,0,2.11v.37c.69-.33,1.35-.65,2-1,.89-.47,1.72-1,2.5-1.45a39.89,39.89,0,0,0,4.87-3.66,7.8,7.8,0,0,0,2.6-6.68q-2.57-24-6.12-49.08c-4.18-29.45-9.08-57.55-14.49-84.24-5.12-31.1-6-61.91-7.28-93.29-.94-23.85-2.29-48-8.1-71.2-.13-.54-.35-1.39-.58-2.28C3069.19,942.72,3066.16,950.94,3055.87,955.49Z"/><path class="cls-17" d="M2978.05,1089.06c1,33.15-1.12,119-1.52,126.67a8.73,8.73,0,0,0,5.06,8.44l.54.24a42,42,0,0,0,15.6,3.51c.93,0,1.83,0,2.72,0a40.31,40.31,0,0,0,6.12-.69,38.64,38.64,0,0,0,3.88-.94c1.07-.31,2.08-.65,3-1,1.26-.46,2.42-1,3.51-1.47,0-.16,0-.34,0-.53.73-16.06-6.4-90.84-6.4-90.84l-3.14-45.6,1.51-82.06c0-1.89.12-3.66.25-5.35,0-.28,0-.56.05-.84s0-.54,0-.8c.08-1.07.18-2.09.27-3,.19-1.8.39-3.44.61-4.88.05-.4.12-.78.17-1.16s.08-.54.13-.79c.51-3.08,1-5.09,1.17-5.8a54.79,54.79,0,0,0,4.11,12v-.27c10.51,41.63,36.55,166,38.18,188.25,1.65,22.53,2.47,44,2.67,64.31a7.73,7.73,0,0,0,3.62,6.52,37.27,37.27,0,0,0,6.49,3.23c.58.22,1.2.44,1.84.64.29.1.59.19.89.27a34.76,34.76,0,0,0,22.67-1.08l.18-.06c.44-.18.85-.37,1.26-.56l.39-.17v-.37c0-.66,0-1.36,0-2.11v0c0-.32,0-.65,0-1,0-.49,0-1,0-1.51,0-.25,0-.5,0-.76,0-.43,0-.87-.06-1.32V1248c0-.77-.08-1.58-.13-2.4v0c0-.31,0-.63-.07-1-.07-1.06-.15-2.17-.24-3.3q-.24-3-.57-6.2c0-.24,0-.47-.07-.71-.1-1-.21-2.12-.33-3.2s-.21-1.87-.31-2.84c-.15-1.2-.29-2.43-.43-3.67-.53-4.46-1.14-9.14-1.8-14-.23-1.63-.46-3.27-.68-4.92-.19-1.35-.38-2.72-.59-4.08s-.39-2.72-.59-4.09l-.75-5.08c-.66-4.43-1.35-8.85-2-13.18-4.35-27.72-8.72-51.8-8.72-51.8a878.83,878.83,0,0,1-11.79-92.45c-1-14.16-2.06-28.52-2.7-38.29a286.74,286.74,0,0,0-6.19-41.35,32.32,32.32,0,0,1-7.8,2.34,65.26,65.26,0,0,1-18.7,0c-.67-.08-1.38-.2-2.12-.33l-1.43-.27c-1.38-.29-2.83-.62-4.34-1-.49-.11-1-.24-1.47-.38-.78-.2-1.58-.42-2.37-.65s-1.61-.44-2.42-.67l-1.2-.36-2.62-.81q-2.37-.74-4.55-1.45a84.53,84.53,0,0,1-23.63-12c-4.34-3.18-8.2-6.69-8.81-9.42a14.93,14.93,0,0,0-.88,2.79c-6.79,30.35-6.2,53.84-3.28,81C2972.91,1039.12,2977.32,1064.08,2978.05,1089.06Z"/><path d="M3052.93,943.06s1,3.85,2.42,10a28.76,28.76,0,0,0,5.38-3.17,20.46,20.46,0,0,0,7.6-11.51h0a103.41,103.41,0,0,0-3.68-10.85v0c-.86,4.56-2.9,9.64-6.76,12.55a26.73,26.73,0,0,1-4.8,2.85Z"/><path class="cls-18" d="M2975,928c7.87,11.54,21.78,18.67,34.7,22.86,2.5.81,5.16,1.62,7.91,2.35,1.93.53,3.91,1,5.92,1.42.49.1,1,.21,1.51.3l1.42.28,1.69.28,1.46.22c1,.13,2,.25,3.07.36l1.53.13a50.74,50.74,0,0,0,13.36-.6,33.41,33.41,0,0,0,4.19-1.07,29.14,29.14,0,0,0,3.6-1.4c-1.39-6.19-2.42-10-2.42-10-12.62,5.75-29,2-41.52-2.1s-26-11.14-32.89-22.85c0,0,0,0,0,0a0,0,0,0,1,0,0,.66.66,0,0,0,0,.11c-.18.42-.76,1.83-1.57,4.11C2976.34,923.86,2975.69,925.75,2975,928Z"/><path class="cls-16" d="M3010.61,1132.41s7.13,74.78,6.4,90.84c0,.19,0,.37,0,.53.34-.16.67-.34,1-.51.15-.07.3-.14.44-.22a13.46,13.46,0,0,0,7.28-12.67q-1.53-28.47-4.28-58.78-1.52-16.53-3.32-32.48a521.32,521.32,0,0,1-3.26-68.42c.42-21.36.93-44.79.93-56.62v-.27a74.89,74.89,0,0,1-1.83-17c.12-7.1.93-17.88,1.26-22.25.11-1.2.18-1.91.18-1.94l-.66-.2-.34-.1-.85-.25c-.71-.2-1.41-.42-2.1-.64,0,0,0,.76,0,2-.11,4.23-.36,14.45-.48,21.52,0,.49,0,1,0,1.47a66.26,66.26,0,0,1-.43,11.53c-.05.25-.09.52-.13.79s-.12.76-.17,1.16c-.22,1.44-.42,3.08-.61,4.88-.09,1-.19,2-.27,3,0,.26,0,.54,0,.8s0,.56-.05.84c-.13,1.69-.21,3.46-.25,5.35l-1.78,39.76A529.07,529.07,0,0,0,3010.61,1132.41Z"/><path class="cls-19" d="M2975,928c7.87,11.54,21.78,18.67,34.7,22.86,2.5.81,5.16,1.62,7.91,2.35,1.93.51,3.91,1,5.92,1.42.49.1,1,.21,1.51.3l1.42.28,1.69.28,1.46.22c1,.13,2,.25,3.07.36l1.53.13a50.74,50.74,0,0,0,13.36-.6c.7-.15,1.42-.3,2.12-.48s1.38-.37,2.07-.59a29.14,29.14,0,0,0,3.6-1.4,28.76,28.76,0,0,0,5.38-3.17,20.46,20.46,0,0,0,7.6-11.51l1,3.84v0c-.17.44-3.2,8.66-13.48,13.2a32.53,32.53,0,0,1-7.81,2.35,65.62,65.62,0,0,1-18.69,0c-6-.78-15.38-3.59-22.52-5.92a84.26,84.26,0,0,1-23.63-12c-4.34-3.18-8.21-6.69-8.82-9.42Z"/><polyline class="cls-20" points="3005.98 847.49 3005.88 847.49 3005.48 847.19 3004.57 846.68 3004.47 846.68 3003.96 846.38"/><path class="cls-21" d="M3053,943.09c-12.63,5.76-29.1,1.92-41.53-2.13-10.11-3.23-20.92-8.48-28.09-16.57,12.53-19.6,9.9-63.15,10.81-70.73.61-5.46,5.25-4.35,8-3.24l1.11.71.11.1v-.3l.6.3c.3.2.61.3.91.51a5.73,5.73,0,0,1,.81.5c2.83,1.62,13.94,7.88,15,8.39a50.82,50.82,0,0,0,22.53,4.45,4.69,4.69,0,0,1,4.75,5c-.61,6.06-1.52,15.56-1.62,19.5-.1,2-.2,3.94-.2,6v.1a9.43,9.43,0,0,1,.1,1.72c0,.81.1,1.62.1,2.53.3,6.16.61,12.33,1.42,18.39A159.17,159.17,0,0,0,3053,943.09Z"/><path class="cls-15" d="M3041.25,781.2a14.68,14.68,0,0,1-9.3,7.08,34.36,34.36,0,0,1-8.49.2h-.1a29.27,29.27,0,0,1-6.87-3.33,3.49,3.49,0,0,1-.91-.81,6.4,6.4,0,0,1-2.12-2.23,9.08,9.08,0,0,1-1.42-5.35,70.31,70.31,0,0,0,3.95-16.47,21.06,21.06,0,0,0,.1-4.25c2.12-.1,5.35-1,10.1-2.62a7,7,0,0,1,1.52-.51c2.93-.81,9-1.52,12.53,4.65C3044.89,765.84,3044,774.23,3041.25,781.2Z"/><path class="cls-22" d="M2983.08,828.67a0,0,0,0,0,0,0h0Z"/><path class="cls-23" d="M3008.11,746.14a3.46,3.46,0,0,0-.91.4,11.18,11.18,0,0,0-2.13,1.11c-.5.21-.81.51-1.11.61l-.2.2a9.09,9.09,0,0,0-.81.71c-.71.81-1.42,1.52-1.92,2.12-6,7.28-8,15.16-9.09,19.91-.21.61-.71,3.23-1.62,8.49a107.51,107.51,0,0,1-2.83,12.73,49.09,49.09,0,0,1-2.22,6.16c-.31.41-.61.81-1,1.42a15,15,0,0,0-.91,1.41c-.31.51-.61,1.12-.91,1.72a11.94,11.94,0,0,0-.91,2,13.87,13.87,0,0,0-.91,2.23,27.09,27.09,0,0,0-1.21,5.35c-.11.51-.11,1-.21,1.52a27.72,27.72,0,0,0-.1,2.93,29.54,29.54,0,0,0,2.43,10.81,23.19,23.19,0,0,1-3.34-9.4,27.17,27.17,0,0,1,3.54-17.38c.61-1.41,1.21-2.83,1.72-4.24a84.31,84.31,0,0,0,3.53-12.23c1.42-7.07,2.83-14.25,5.36-21.12,2.63-7.28,6.87-14.85,14.15-18.09a.35.35,0,0,1,.2-.1c.1-.1.2-.1.3-.2h.21c.1-.1.1-.1.2-.1a.77.77,0,0,1,.3-.1c0,.1,0,.1.1.2C3007.9,745.53,3008,745.84,3008.11,746.14Z"/><path class="cls-22" d="M3076.31,781.3a16.48,16.48,0,0,0-8.69,6.47,32.49,32.49,0,0,0-4.24,10v.1c0,.1-.1.2-.1.3-2.33,9.4-4.85,35.77-5.86,47.29a13.75,13.75,0,0,1-8.59,11.72c-6.37,2.43-13.85,2-17.48,1.52-.91-.1-1.62-.2-2-.2a29.43,29.43,0,0,1-4.14-1c-.2-.1-.5-.1-.71-.21-.9-.3-1.81-.6-2.72-1s-1.82-.81-2.63-1.22h-.1c-.21-.1-.3-.2-.51-.3,0,0-10.1-5.86-10.61-6.17-.2-.1-1-.6-1.92-1.11h-.1c-.1-.1-.3-.1-.4-.2v-.1l-.91-.51a1.63,1.63,0,0,0-.61-.3v-.1l-7.58-4.35a54.48,54.48,0,0,1-7.78-5c.3,1.92.51,3.84.81,5.76a169.53,169.53,0,0,1,1,27.89c-.1,2.53-.2,4.85-.5,7.18-1.42,15.56-5.06,26.67-8.19,33.75a70.1,70.1,0,0,1-3.23,6.67v.1a30.94,30.94,0,0,0,4.85,6.16c12.53-19.6,9.9-63.15,10.81-70.73.61-5.45,5.25-4.35,8-3.24l1.11.71.11.1,1.41.91.51.3c2.32,1.42,6,3.34,6.66,3.64.21.1,4.65,2.53,5.66,3l3,1.52a50.82,50.82,0,0,0,22.53,4.45,4.69,4.69,0,0,1,4.75,5c-.61,6.06-1.52,15.56-1.62,19.5-.1,2-.2,3.94-.2,6v.1a169.46,169.46,0,0,0,1.62,22.64,159.17,159.17,0,0,0,5.25,24.76.1.1,0,0,1,.1-.11,28.16,28.16,0,0,0,4.85-2.82c3.84-2.93,5.86-8,6.77-12.53v-.11c-.6-4-1.82-8-2.62-12-3.34-15.46-2.63-31.33-1.52-47.09,0-.81.1-1.72.1-2.53v-.5c.1-.71.1-1.32.2-2,1.32-18.49,2.73-37,4-55.58.41-6.37,1-13,4.25-18.49s10-9.1,16.37-7.38v-.1C3082.68,779.89,3078,780.8,3076.31,781.3Z"/><line class="cls-8" x1="3002.68" y1="704.68" x2="3003.31" y2="704.25"/><line class="cls-8" x1="2998.49" y1="707.57" x2="2998.97" y2="707.24"/><path class="cls-24" d="M2992.34,691.57c5-13.84,13.64-19.6,13.64-19.6a27.86,27.86,0,0,0-5.66,8.79,50.23,50.23,0,0,0-1.81,11.22c-.21,3.94-.51,5.65.6,7,.81,1.11,2.12,1.31,3.54,1.51v.31a6.18,6.18,0,0,1-1.32-.41,6.37,6.37,0,0,1-.7-.2C2997.7,699.05,2992.85,696.62,2992.34,691.57Z"/><path class="cls-24" d="M3082,736.34v.1c-1.41,9.29-7.68,20.11-15.25,30.21A258.88,258.88,0,0,1,3036,800.3c.09-.2.6-1.11,1.31-2.52,1.41-2.83,3.94-7.78,6.56-13.55,2.53-5.45,5.26-11.72,7.38-17.78,3-8.29,2.43-17.58.41-26.37-.1-.31-.21-.71-.3-1a126.54,126.54,0,0,0-7.49-21.22,35.81,35.81,0,0,1-2.52-21.82,4.59,4.59,0,0,1,.1-.51,1.21,1.21,0,0,1,.1-.5l-.6.3a3.61,3.61,0,0,0-.91.51,1.42,1.42,0,0,0-.61.2.76.76,0,0,1-.5.2c-.11,0-.21.1-.31.2a1.69,1.69,0,0,0-.5.2,7.76,7.76,0,0,1-.81.31l-.1.1a13.35,13.35,0,0,0-1.52.5,3.9,3.9,0,0,1-1,.41,6.68,6.68,0,0,1-2,.6c-.1.1-.1.1-.2.1a12.49,12.49,0,0,1-2.83.71,36.18,36.18,0,0,1-6.57.91,130.25,130.25,0,0,1-16.67.71h-1a23.18,23.18,0,0,1-2.73-.2,6.18,6.18,0,0,1-1.32-.41,6.37,6.37,0,0,1-.7-.2c-2.93-1.11-7.78-3.54-8.29-8.59a10.25,10.25,0,0,1,.2-3.84c1.82-7.28,9.5-17.88,21.42-24.66a3.46,3.46,0,0,1,1.22-.6,46.76,46.76,0,0,1,17.48-5.56l-.1.1a36.78,36.78,0,0,1,13.34-.2,45.21,45.21,0,0,1,25.26,13.64,33.54,33.54,0,0,1,7.58,13,1.27,1.27,0,0,1,.1.6C3085.31,707.34,3085,724.21,3082,736.34Z"/><path class="cls-25" d="M3051.66,740.08a28.09,28.09,0,0,1-2.93,1.51c-.41.2-.91.51-1.42.71-.81.4-1.61.81-2.52,1.21a29.77,29.77,0,0,1-3.13,1.42l-.11.1c-5.66,2.42-11.72,4.75-15.46,6.06a31.8,31.8,0,0,1-3,1c-.1,0-.3.1-.4.1-1,.3-2,.51-3,.81a20.26,20.26,0,0,1-2.62.51l-1.21.3a5.56,5.56,0,0,1,.3,2.22c3.71,0,12-3.26,11.62-3.13,2.93-.81,9-1.52,12.53,4.65,4.6,8.2,3.74,16.48,1.08,23.41-2.12,3.57-5.12,6.35-9.37,7.31a34.36,34.36,0,0,1-8.49.2,11.48,11.48,0,0,0,2.63.81h.1a12.13,12.13,0,0,0,1.82.4,17.91,17.91,0,0,0,15.86-5.46c2.53-5.45,5.26-11.72,7.38-17.78C3054.29,758.16,3053.68,748.87,3051.66,740.08Z"/><path class="cls-24" d="M3002.88,781.25c-.57.12-1.14.2-1.69.33h0l0-.54a.62.62,0,0,1,0-.13c0-.22,0-.45-.07-.67h0l-.09-.68q0-.33-.09-.69c0-.36-.11-.73-.17-1.11,0-.15,0-.31-.07-.46-.76-4.66-2.18-10.32-4.36-19.5-.06-.29-.13-.59-.2-.88-.47-2-1-4.08-1.5-6.38-.26-1.15-.54-2.34-.82-3.58-.9-3.94-1.81-8.39-2.93-13.34a90,90,0,0,1,.71-40.12l0,.07c.41.63.85,1.36,1.3,2.11,1.51,2.52,3.19,5.36,4.82,5.91a1.85,1.85,0,0,0,.7.2,6.47,6.47,0,0,0,1.32.4,59,59,0,0,0,0,7.48c.4,5.15-.31,10.51-.31,15.76a28.66,28.66,0,0,0,1,9.3,62.22,62.22,0,0,0,2.12,6.26c.2.41.5,1.32.9,2.23a1.91,1.91,0,0,0,.21.5c.9,2.53,2.22,5.86,2.52,6.58.09.21.18.43.28.64.22.48.46,1,.74,1.47a.45.45,0,0,0,0,.08v0s0,.11.09.21c0,.37.12,1.15.15,2.28C3007.6,759.21,3007.26,768.47,3002.88,781.25Z"/><path class="cls-15" d="M3051.66,740.08a28.09,28.09,0,0,1-2.93,1.51c-.41.2-.91.51-1.42.71-.81.4-1.61.81-2.52,1.21a29.77,29.77,0,0,1-3.13,1.42l-.11.1c-5.66,2.42-11.72,4.75-15.46,6.06a31.8,31.8,0,0,1-3,1c-.1,0-.3.1-.4.1-1,.3-2,.51-3,.81a20.26,20.26,0,0,1-2.62.51l-1.21.3h-.11c-.4,0-.6.1-.91.1a2.23,2.23,0,0,1-.81.1,1.48,1.48,0,0,1-.7-.1.64.64,0,0,1-.41-.1,3.33,3.33,0,0,0-.6-.3,9.88,9.88,0,0,1-3.14-4.65c-.3-.71-1.61-4-2.52-6.57a1.72,1.72,0,0,1-.2-.51c-.41-.91-.71-1.82-.91-2.22a62.4,62.4,0,0,1-2.12-6.27,28.88,28.88,0,0,1-1-9.29c0-5.26.71-10.61.31-15.77-.1-2,0-7,0-7.47a23.18,23.18,0,0,0,2.73.2h1a130.25,130.25,0,0,0,16.67-.71,36.18,36.18,0,0,0,6.57-.91,12.49,12.49,0,0,0,2.83-.71c.1,0,.1,0,.2-.1a3.62,3.62,0,0,0,1-.2,4.25,4.25,0,0,0,1-.4,3.9,3.9,0,0,0,1-.41,13.35,13.35,0,0,1,1.52-.5l.1-.1a7.76,7.76,0,0,0,.81-.31,1.69,1.69,0,0,1,.5-.2c.2,0,.31-.1.41-.1s.3-.2.4-.3a1.42,1.42,0,0,1,.61-.2,3.61,3.61,0,0,1,.91-.51l.6-.3a1.21,1.21,0,0,0-.1.5,4.59,4.59,0,0,0-.1.51,35.81,35.81,0,0,0,2.52,21.82,126.54,126.54,0,0,1,7.49,21.22C3051.45,739.37,3051.56,739.77,3051.66,740.08Z"/><polygon class="cls-26" points="2909.04 802.47 2942.38 888.67 2944.74 890.04 3009.05 927.17 3007.38 922.83 2977.97 846.76 2975.72 840.97 2960.38 832.12 2957.45 830.42 2913.26 804.91 2909.04 802.47"/><polygon class="cls-27" points="2909.04 802.47 2913.26 804.91 2957.45 830.42 2960.38 832.12 2975.72 840.97 2977.97 846.76 3007.38 922.83 3009.05 927.17 3011.6 925.27 2979.14 841.34 2978.26 839.06 2961.19 829.14 2960.18 828.55 2911.79 800.43 2909.04 802.47"/><path class="cls-15" d="M2949.7,863.78l-1.76,11.2a1.84,1.84,0,0,1-2.47,1.44l-15.83-6a13.52,13.52,0,0,1-4.69-7c-1.43-5.27-3.17-14.42-.76-22.51l24.89,21.17A1.85,1.85,0,0,1,2949.7,863.78Z"/><path class="cls-28" d="M3015.79,753.82h-1v.12l-.36,0a4.38,4.38,0,0,1-2.77-1.12,11.53,11.53,0,0,1-2.53-4c-.29-.71-1.62-4-2.52-6.57a1.91,1.91,0,0,1-.21-.5c-.4-.92-.7-1.83-.9-2.23-.81-2-1.52-4.15-2.13-6.26a29,29,0,0,1-1-9.31c0-5.25.71-10.6.31-15.76a51.88,51.88,0,0,1,0-5.76v-.1a8.75,8.75,0,0,1,0-1.62,5.79,5.79,0,0,1-1.32-.4c-.3-.1-.5-.1-.71-.2-2.51-.95-6.46-2.89-7.83-6.63a7.59,7.59,0,0,1-.45-2c-.6,1.52-.35.14-.76,1.95v0a7.83,7.83,0,0,0,1.34,4.45,9.75,9.75,0,0,0,4.78,3.57,1.85,1.85,0,0,0,.7.2,6.47,6.47,0,0,0,1.32.4,59,59,0,0,0,0,7.48c.4,5.15-.31,10.51-.31,15.76a28.66,28.66,0,0,0,1,9.3,62.22,62.22,0,0,0,2.12,6.26c.2.41.5,1.32.9,2.23a1.91,1.91,0,0,0,.21.5c.9,2.53,2.22,5.86,2.52,6.58.09.21.18.43.28.64a14.68,14.68,0,0,0,.75,1.55v0l.2.33c0-.05-.08-.07-.11-.12,0,.37.12,1.15.15,2.28.15,4.22-.19,13.48-4.57,26.26a8.81,8.81,0,0,0,1.79-.55,1.83,1.83,0,0,0,.08-.25c.15-.47.31-.94.46-1.42l.11-.33c.2-.6.41-1.21.62-1.82,0-.06,0-.13.07-.2.14-.4.29-.82.45-1.22.33-.93.68-1.84,1-2.74h0a7.79,7.79,0,0,1,.78-4.35A13.13,13.13,0,0,1,3012,764a17,17,0,0,1,1.69-2.11l2.32-1.62c.07-.62.11-1.2.15-1.72h0A12.36,12.36,0,0,0,3015.79,753.82Z"/><path class="cls-21" d="M3094.2,807.37l-7.48,65,5.56,33.55c-10-.4-13.24,9.8-14.05,13.14l-15.46-35.67a20.24,20.24,0,0,1-1.61-6.47l-.61-8.49c0-.8.1-1.72.1-2.52v-.51l.41-9-6.68,2.22a43.28,43.28,0,0,1-29.19-1.11c-.21-.1-.51-.1-.72-.21-.9-.3-1.82-.6-2.72-1s-1.83-.82-2.63-1.22h-.1c-.21-.1-.3-.2-.5-.3,0,0-10.11-5.86-10.62-6.17-.2-.1-1-.6-1.92-1.11h-.1c-.1-.1-.3-.1-.4-.2v-.1l-.92-.5h-.09l-.51-.31v-.1l-7.58-4.35a55.37,55.37,0,0,1-7.78-5c-.1-.3-2.12-1.82-3-2.72-.1-.11-.1-.21-.2-.31l-.1-.1c-.41-.51-.91-1-1.32-1.62-.6-.91-1.21-1.81-1.71-2.73l-8.42,7.08-22.59-13.13,20.6-14.76c.2-.81.4-1.72.6-2.63.61-2.22,1.22-4.55,1.82-6.87,1.32-4.75,1.82-5.86,3-9.91,1-3.53.81-3.22,2.83-10.5,1.72-6.57,2.63-9.91,3.44-12.23.42-.92,1.6-4.81,3.6-9.18.41-.9.86-1.83,1.35-2.75a41.94,41.94,0,0,1,5.25-7.57c.28,1.24.56,2.43.82,3.58.14.57.27,1.14.39,1.69.39,1.65.75,3.22,1.11,4.69.07.29.14.59.2.88.27,1.15.53,2.24.78,3.28,1.49,6.26,2.56,10.72,3.26,14.42.12.62.22,1.22.32,1.8,0,.15.06.31.07.46.06.38.12.75.17,1.11s.07.47.09.69l.09.68h0c0,.22,0,.45.07.67a.62.62,0,0,0,0,.13c0,.18,0,.36.06.54.55-.13,1.12-.21,1.69-.33a8.81,8.81,0,0,0,1.79-.55,1.83,1.83,0,0,0,.08-.25c.15-.47.31-.94.46-1.42l.11-.33c.2-.6.41-1.21.62-1.82,0-.06,0-.13.07-.2.14-.4.29-.82.45-1.22.33-.93.68-1.84,1-2.74h0a7.79,7.79,0,0,1,.78-4.35A13.13,13.13,0,0,1,3012,764a17,17,0,0,1,1.69-2.11v-.3l.67-4.51a2,2,0,0,1,1.27.59,2.49,2.49,0,0,1,.53.87h0c0,.52-.08,1.1-.15,1.72v.08a69.48,69.48,0,0,1-3.94,16.39,9.09,9.09,0,0,0,1.42,5.36,6.43,6.43,0,0,0,2.13,2.23,3.11,3.11,0,0,0,.9.8,30,30,0,0,0,9.6,4.15h.1a12,12,0,0,0,1.83.4,17.94,17.94,0,0,0,15.86-5.45c.5-.51,1-1.11,1.51-1.72,10.21-12.33,16.88-16,19.81-17,.1.1.7.5,1.11.81a1.66,1.66,0,0,0,.41.3l14.85,11.82,1.61,1.32,1.52,1.21.81.81v.1h.1c.1.2.31.4.51.71s.4.51.6.8.41.51.61.71A34.91,34.91,0,0,1,3094.2,807.37Z"/><path class="cls-24" d="M3016,760.36c-.64,1.17-2.32,2.25-4,3.65a13.13,13.13,0,0,0-3.69,4.35,7.79,7.79,0,0,0-.78,4.35h0c.2,2.17.89,4-.59,6.11a5.26,5.26,0,0,1-2.24,1.87,8.81,8.81,0,0,1-1.79.55c-.57.12-1.14.2-1.69.33h0a5.41,5.41,0,0,0-3.61,2c-3.21,4.37,2.63,10.62-.66,18.22a14,14,0,0,1-3.1,4.46,13.11,13.11,0,0,0-1.28-8.3c-1.91-3.65-5.42-6.17-8.11-9.31s-4.57-7.75-2.53-11.35c1.51-2.65,4.63-3.83,7.21-5.46s5-4.73,3.72-7.52a15.1,15.1,0,0,0-1.62-2.35c-.64-.88-1.09-1.89-1.79-2.72a15,15,0,0,0-2.26-2l-.25-.2a17,17,0,0,1-4-20.39c1.32-2.47,3.26-4.6,4.26-7.2a11.12,11.12,0,0,0,.39-6.65c-.66-2.59-2.23-4.85-3.26-7.32a19.22,19.22,0,0,1,7.49-23.11l-.58-2.57a6.07,6.07,0,0,1,1.52,3c0,.22,0,.44,0,.66,0,.71.07,1.43.09,2.14s0,1.56,0,2.34c0,10.37-1.34,20.92,2.1,30.63,2,5.68,5.58,10.7,7.64,16.36.94,2.57,1.58,5.29,3,7.65a10.33,10.33,0,0,0,1.84,2.34,7,7,0,0,0,4.65,2.09,16.59,16.59,0,0,1,2.23,0,2,2,0,0,1,1.27.59,2.49,2.49,0,0,1,.53.87h0a2.68,2.68,0,0,1,.11.49A2,2,0,0,1,3016,760.36Z"/><path class="cls-24" d="M3074.69,676l9.66,9a12.54,12.54,0,0,1,3.13,3.8c1,2.14.65,4.66,1.34,6.9.93,3,3.5,5.14,5.27,7.73a16.1,16.1,0,0,1,1.63,14.72c-1,2.53-2.68,5.08-2.06,7.73.82,3.49,5.22,5.11,6.3,8.53,1.57,5-4.54,8.89-5.85,13.92-1.39,5.31,2.77,10.25,5.91,14.75,4.25,6.12,7.05,14.07,4.34,21-.93,2.37-2.44,4.47-3.35,6.84-1.11,2.91-1.27,6.08-1.83,9.14a34.27,34.27,0,0,1-5.75,14c-.24-4.1-.73-8.18-1-12.27-.15-2.54-2.72-10.79-3.67-12.34-1.67-2.76-3-5.77-5-8.26a27.5,27.5,0,0,0-8.33-7c-3.38-1.83-7.59-2.84-9.34.58-1,1.93-.79,4.33-1.94,6.16-1.84,2.92-6.49,3.43-7.67,6.67-.52,1.42-.19,3-.52,4.48-.73,3.37-4.45,5.09-7.76,6s-10.46,2.58-12.37,5.45c-1.79,2.71-3.84,11-3.84,11-.6-14.16,2.95-18.36,6.88-23.63,2.18-2.92,5.19-5.55,5.66-9.16.23-1.76-.2-3.6.26-5.32.75-2.89,3.7-4.63,5.15-7.24,3.31-6-2.28-13.64-.19-20.17.77-2.39,2.54-4.45,2.82-7,.25-2.17-.68-4.29-1.67-6.24-3.17-6.24-7.22-12.08-9.54-18.68s-2.65-14.44,1.38-20.17a28.11,28.11,0,0,1,5.77-5.65,156.9,156.9,0,0,1,26.27-16.82"/><path class="cls-28" d="M3050.1,675a22,22,0,0,0-2.12-1.43C3048.66,673.94,3049.39,674.52,3050.1,675Z"/><path class="cls-28" d="M3069.42,678.89a13.49,13.49,0,0,0-3.12-2.31,12.91,12.91,0,0,1,3.22.8c4.63,1.82,7.93,6.28,7.93,6.28-3.09-10.14-11.92-11.46-11.92-11.46a21.12,21.12,0,0,0-4.67-6.19,22.66,22.66,0,0,0-14.5-5.64c1.28.29,9.79,2.37,14.1,7.65a10.84,10.84,0,0,1,2.95,6.71,8.76,8.76,0,0,1-.26,2.28,21.11,21.11,0,0,0-3-4.06,21.33,21.33,0,0,0-9.56-5.74c.58.21,8.84,3.18,9.79,9.8a9.17,9.17,0,0,1-.2,3.56,27.24,27.24,0,0,0-4.36-6.24,28.34,28.34,0,0,0-13.49-7.92c4.67,2,13.2,6.4,15.44,14.63.13.5.24,1,.33,1.55-.39-.56-.81-1.12-1.27-1.68a28.79,28.79,0,0,0-6.74-5.92c2.22,1.66,4.83,4.3,5.46,8a8.53,8.53,0,0,1,.13,1.27,39.86,39.86,0,0,0-6.84-7.52c-10.35-8.73-22.25-9.4-22.36-9.06s16,2.09,24.84,14.64a28,28,0,0,1,2.08,3.42,24.32,24.32,0,0,0-9.53-4.9,10.35,10.35,0,0,1,5.91,5.17,8.5,8.5,0,0,1,.62,2.1,36.5,36.5,0,0,1-5.45-1.29c-6.78-2.19-10.68-5.76-10.81-5.58s3.94,5,10.67,7.25c1.65.55,3.27,1.14,3.22,1.35s-3.76-.51-8.32-1.08c-7.63-1-13.48-.7-13.49-.49a81.86,81.86,0,0,1,8.05,1.57c2.72.74,6.13,1.7,6.18,3.08,0,.74-.9,1.32-1.88,2a12.22,12.22,0,0,1-5.17,1.81,95.75,95.75,0,0,1-13.56.27,24,24,0,0,0,13.81,1.36c1.57-.34,3.46-.95,7.93-3.33a17.9,17.9,0,0,0,2.76,8.69,17.66,17.66,0,0,0,3.91,4.31,16.36,16.36,0,0,1-2.37-6c-.58-3.37,0-6.61.54-6.65s.5,2.73,2.62,5.84c1.29,1.9,2.81,3.05,3,2.89s-3.19-3.54-2.89-7.79c.14-2,1.07-3.68,1.48-3.63s.22,1,.94,2.49c.4.82,1,1.69,1.21,1.61s-.79-2.1-.24-4.22a5.45,5.45,0,0,1,1.51-2.49,19.06,19.06,0,0,1,5.31,7.58,18.82,18.82,0,0,1,1.2,6.58c.43-3.88.37-9.93-3.35-14.77-.29-.37-.6-.73-.91-1.07a10.8,10.8,0,0,1,3.83,2.32,12,12,0,0,1,3.54,8.27,19.82,19.82,0,0,0-1.63-9.28A19.44,19.44,0,0,0,3060,686a15.24,15.24,0,0,1,5.54,4.43s2.44,3.23,3.93,16.51c.68-4.08,1.57-13.26-3.89-20.88a22.41,22.41,0,0,0-2.36-2.78,12.38,12.38,0,0,1,2.23,1c11.9,7.15,7.78,33,7,37.57l.35-.7s9-18.73-.53-38.32A16.42,16.42,0,0,0,3069.42,678.89Z"/><path class="cls-29" d="M3074.33,726.72c0,.53,0,1.06,0,1.54a40,40,0,0,1-.34,4.24c-.1.48-.15.92-.24,1.4h-.05a2.38,2.38,0,0,1-.63-.1,13.86,13.86,0,0,0,0-1.44,57.43,57.43,0,0,0-2.6-16.44c-.05,0-.05,0,0,0-.53-1.83-1.11-3.62-1.84-5.45-6.31-16.68-18.85-32.84-33.31-41.18-9.41-5.45-18.13-6.65-24.74-4.15a13.1,13.1,0,0,0-2.89,1.35l-.58.34a19.89,19.89,0,0,0-8,11c1-7.82,4.29-13.51,9.21-16.64l.58-.39a13.13,13.13,0,0,1,2.89-1.3c6.61-2.5,15.34-1.35,24.74,4.1,15.28,8.87,28.4,26.33,34.33,44,.58,1.68,1.06,3.27,1.5,5v0a58.24,58.24,0,0,1,1.44,7.38V720A45.93,45.93,0,0,1,3074.33,726.72Z"/><path class="cls-30" d="M3081.33,721.89a39.29,39.29,0,0,1-.58,6.9v.05a22.37,22.37,0,0,1-.58,2.51c-2.32,1.78-4.53,2.65-6.46,2.55h-.05c.1-.43.19-.92.29-1.4a40,40,0,0,0,.34-4.24c0-.48,0-1,0-1.54a45.93,45.93,0,0,0-.48-6.75v-.05a58.24,58.24,0,0,0-1.44-7.38v0c-.44-1.69-.92-3.28-1.5-5-5.93-17.65-19-35.11-34.33-44-9.4-5.45-18.13-6.6-24.74-4.1a13.13,13.13,0,0,0-2.89,1.3l5.31-3.61,1.63-1.11c6.9-4.2,16.78-3.52,27.68,2.75,15.38,8.82,28.55,26.52,34.48,44.31.33,1,.62,2,.91,3a42.71,42.71,0,0,1,1.16,4.72c.24,1.06.43,2.17.58,3.23A48.82,48.82,0,0,1,3081.33,721.89Z"/><path class="cls-30" d="M3088.85,715a26.11,26.11,0,0,1-6.17,13.94,21.5,21.5,0,0,1-2,2c-.14.15-.34.29-.48.44-2.32,1.78-4.53,2.65-6.46,2.55h-.05a2.38,2.38,0,0,1-.63-.1,3.56,3.56,0,0,1-1.25-.33l-.48-.29a4,4,0,0,1-1.5-1.35,7.94,7.94,0,0,1-1.54-3.57,18.16,18.16,0,0,1,.72-8.49c.15-.48.29-1,.48-1.44a11.77,11.77,0,0,1,1-2.41c-.05,0-.05,0,0,0a18.58,18.58,0,0,1,1.93-3.33v0c.28-.43.57-.82.86-1.2a17.73,17.73,0,0,1,1.4-1.74,16.33,16.33,0,0,1,1.64-1.59,12,12,0,0,1,1.59-1.21,4.35,4.35,0,0,1,1.06-.62,2.8,2.8,0,0,1,.77-.39,6.89,6.89,0,0,1,3.67-.72,3.73,3.73,0,0,1,1.64.38l.58.29a6.68,6.68,0,0,1,3.08,5A15.87,15.87,0,0,1,3088.85,715Z"/><path class="cls-29" d="M3072.53,705.91c-5.65,4.88-9.25,13.94-8.05,20.29.5,2.64,1.75,4.39,3.49,5.21l3.33,1.77a4.26,4.26,0,0,1-1.51-1.34,8.12,8.12,0,0,1-1.53-3.59c-1.2-6.35,2.4-15.41,8.06-20.28,2.47-2.17,5-3.12,7.08-3a4.81,4.81,0,0,1,1.66.39l-2.71-1.44C3079.94,702.15,3076.25,702.74,3072.53,705.91Z"/><path class="cls-29" d="M3087.7,713.57c.85,4.46-1.71,10.83-5.69,14.24-2,1.73-4,2.4-5.59,2a2.32,2.32,0,0,1-.4-.13.59.59,0,0,1-.21,0l-.37-.22a.62.62,0,0,1-.18-.13s-.09,0-.18-.09a2.75,2.75,0,0,1-.67-.73,5.3,5.3,0,0,1-1.09-2.49c-.84-4.46,1.71-10.83,5.65-14.23a7.06,7.06,0,0,1,5-2.09,2.53,2.53,0,0,1,1.15.27.67.67,0,0,1,.41.21A4.82,4.82,0,0,1,3087.7,713.57Z"/><path class="cls-30" d="M3086.09,712.63a.6.6,0,0,0-.32-.16,2.12,2.12,0,0,0-.93-.22,5.7,5.7,0,0,0-4,1.67c-3.15,2.72-5.19,7.82-4.52,11.39a4.25,4.25,0,0,0,.87,2,2.19,2.19,0,0,0,.54.59.29.29,0,0,0,.14.07c.05,0,.12.07.15.1l.3.17c.07,0,.1,0,.17,0a1.24,1.24,0,0,0,.31.1,8.48,8.48,0,0,0,4.76.44,8.71,8.71,0,0,0,6.94-10.17A8.6,8.6,0,0,0,3086.09,712.63Z"/><path class="cls-29" d="M3030.94,743.06l-2.75,2.32a15.17,15.17,0,0,1-7.33,2c-5.3.1-8.68-1.54-8.05-6.85.67-6.26,4.34-6.41,9.4-4.87a19.85,19.85,0,0,1,7.76,4.78Z"/><path class="cls-31" d="M3081.71,723.73a1.12,1.12,0,0,1-.53,1l-19.72,12.39a51.61,51.61,0,0,1-24.4,7.76l-8.87.49,2.75-2.32-1-2.6,6.8-.39a46.86,46.86,0,0,0,22.13-7l19.24-12a.79.79,0,0,1,.77-.48,1.79,1.79,0,0,1,.92.29A3.86,3.86,0,0,1,3081.71,723.73Z"/><path class="cls-32" d="M608.52,1498l-49.14-28.38a12.44,12.44,0,0,0-11.27,0L499,1498c-1.56.9-2.34,2.07-2.34,3.25h0a4,4,0,0,0,2.34,3.25l9.92,5.74,39.22,22.64a12.5,12.5,0,0,0,11.27,0l39.22-22.64,9.92-5.74a4,4,0,0,0,2.34-3.25h0C610.86,1500.07,610.08,1498.9,608.52,1498Z"/><path class="cls-33" d="M608.52,1457.55l-49.14-28.37a12.44,12.44,0,0,0-11.27,0L499,1457.55c-1.56.9-2.34,2.07-2.34,3.26h0c0,1.17.78,2.35,2.34,3.25l9.92,5.74,39.22,22.63a12.44,12.44,0,0,0,11.27,0l39.22-22.63,9.92-5.74c1.56-.9,2.34-2.08,2.34-3.25h0C610.86,1459.62,610.08,1458.45,608.52,1457.55Z"/><path class="cls-34" d="M608.52,1439l-49.14-28.38a12.5,12.5,0,0,0-11.27,0L499,1439c-1.56.9-2.34,2.07-2.34,3.25h0a4,4,0,0,0,2.34,3.26l9.92,5.73,39.22,22.64a12.44,12.44,0,0,0,11.27,0l39.22-22.64,9.92-5.73a4,4,0,0,0,2.34-3.26h0C610.86,1441.05,610.08,1439.88,608.52,1439Z"/><path class="cls-35" d="M608.52,1412.05l-49.14-28.37a12.44,12.44,0,0,0-11.27,0L499,1412.05c-1.56.9-2.34,2.07-2.34,3.26h0c0,1.17.78,2.35,2.34,3.25l9.92,5.74,39.22,22.63a12.44,12.44,0,0,0,11.27,0l39.22-22.63,9.92-5.74c1.56-.9,2.34-2.08,2.34-3.25h0C610.86,1414.12,610.08,1413,608.52,1412.05Z"/><path class="cls-5" d="M608.52,1387.63l-49.14-28.37a12.44,12.44,0,0,0-11.27,0L499,1387.63c-1.56.91-2.34,2.07-2.34,3.26h0a4,4,0,0,0,2.34,3.25l9.92,5.74,39.22,22.64a12.5,12.5,0,0,0,11.27,0l39.22-22.64,9.92-5.74a4,4,0,0,0,2.34-3.25h0C610.86,1389.7,610.08,1388.54,608.52,1387.63Z"/><path class="cls-36" d="M608.52,1464.06l-9.92,5.74-39.22,22.63a12.44,12.44,0,0,1-11.27,0l-39.22-22.63-9.92-5.74c-1.56-.9-2.34-2.08-2.34-3.25v18c0,1.18.78,2.35,2.34,3.25l49.14,28.38a12.44,12.44,0,0,0,11.27,0L608.52,1482c1.56-.9,2.34-2.07,2.34-3.25v-18C610.86,1462,610.08,1463.16,608.52,1464.06Z"/><line class="cls-8" x1="610.86" y1="1460.81" x2="610.86" y2="1460.81"/><path class="cls-32" d="M1210.34,1483.29l-49.14-28.38a12.5,12.5,0,0,0-11.27,0l-49.15,28.38c-1.55.9-2.33,2.07-2.33,3.25h0a4,4,0,0,0,2.33,3.25l9.93,5.74,39.22,22.64a12.44,12.44,0,0,0,11.27,0l39.22-22.64,9.92-5.74a3.94,3.94,0,0,0,2.34-3.25h0C1212.68,1485.36,1211.9,1484.19,1210.34,1483.29Z"/><path class="cls-37" d="M1210.34,1439.84l-49.14-28.38a12.5,12.5,0,0,0-11.27,0l-49.15,28.38c-1.55.9-2.33,2.07-2.33,3.25h0a4,4,0,0,0,2.33,3.25l9.93,5.74,39.22,22.64a12.44,12.44,0,0,0,11.27,0l39.22-22.64,9.92-5.74a3.94,3.94,0,0,0,2.34-3.25h0C1212.68,1441.91,1211.9,1440.74,1210.34,1439.84Z"/><path class="cls-34" d="M1210.34,1421.26l-49.14-28.37a12.44,12.44,0,0,0-11.27,0l-49.15,28.37c-1.55.9-2.33,2.07-2.33,3.25h0a4,4,0,0,0,2.33,3.25l9.93,5.73,39.22,22.64a12.44,12.44,0,0,0,11.27,0l39.22-22.64,9.92-5.73c1.56-.9,2.34-2.08,2.34-3.25h0C1212.68,1423.33,1211.9,1422.16,1210.34,1421.26Z"/><path class="cls-35" d="M1210.34,1394.34,1161.2,1366a12.5,12.5,0,0,0-11.27,0l-49.15,28.38c-1.55.9-2.33,2.07-2.33,3.25h0a4,4,0,0,0,2.33,3.25l9.93,5.74,39.22,22.64a12.44,12.44,0,0,0,11.27,0l39.22-22.64,9.92-5.74a3.94,3.94,0,0,0,2.34-3.25h0C1212.68,1396.41,1211.9,1395.24,1210.34,1394.34Z"/><path class="cls-5" d="M1210.34,1369.92l-49.14-28.38a12.5,12.5,0,0,0-11.27,0l-49.15,28.38c-1.55.9-2.33,2.07-2.33,3.25h0a4,4,0,0,0,2.33,3.26l9.93,5.73,39.22,22.64a12.44,12.44,0,0,0,11.27,0l39.22-22.64,9.92-5.73a4,4,0,0,0,2.34-3.26h0C1212.68,1372,1211.9,1370.82,1210.34,1369.92Z"/><path class="cls-38" d="M1210.34,1446.34l-9.92,5.74-39.22,22.64a12.44,12.44,0,0,1-11.27,0l-39.22-22.64-9.93-5.74a4,4,0,0,1-2.33-3.25v18a4,4,0,0,0,2.33,3.26l49.15,28.37a12.44,12.44,0,0,0,11.27,0l49.14-28.37a4,4,0,0,0,2.34-3.26v-18A3.94,3.94,0,0,1,1210.34,1446.34Z"/><line class="cls-8" x1="1212.68" y1="1443.09" x2="1212.68" y2="1443.09"/><path class="cls-32" d="M369.91,1466.55l-120.16-69.37c-7.61-4.4-20-4.4-27.56,0L102,1466.55c-3.81,2.21-5.7,5.07-5.7,8h0c0,2.87,1.89,5.76,5.7,8l24.28,14,95.89,55.35c7.6,4.4,19.95,4.4,27.56,0l95.88-55.35,24.28-14c3.81-2.2,5.71-5.09,5.71-8h0C375.62,1471.62,373.72,1468.76,369.91,1466.55Z"/><path class="cls-39" d="M369.91,1317.1l-120.16-69.38c-7.61-4.39-20-4.39-27.56,0L102,1317.1c-3.81,2.2-5.7,5.06-5.7,8h0c0,2.87,1.89,5.76,5.7,8l24.28,14,95.89,55.35c7.6,4.4,19.95,4.4,27.56,0L345.63,1347l24.28-14c3.81-2.19,5.71-5.08,5.71-8h0C375.62,1322.16,373.72,1319.3,369.91,1317.1Z"/><path class="cls-34" d="M369.91,1271.68,249.75,1202.3c-7.61-4.39-20-4.39-27.56,0L102,1271.68c-3.81,2.2-5.7,5.06-5.7,8h0c0,2.87,1.89,5.76,5.7,7.95l24.28,14L222.19,1357c7.6,4.39,19.95,4.39,27.56,0l95.88-55.36,24.28-14c3.81-2.19,5.71-5.08,5.71-7.95h0C375.62,1276.74,373.72,1273.88,369.91,1271.68Z"/><path class="cls-35" d="M369.91,1205.84l-120.16-69.37c-7.61-4.4-20-4.4-27.56,0L102,1205.84c-3.81,2.21-5.7,5.07-5.7,8h0c0,2.87,1.89,5.75,5.7,8l24.28,14,95.89,55.35c7.6,4.4,19.95,4.4,27.56,0l95.88-55.35,24.28-14c3.81-2.2,5.71-5.08,5.71-8h0C375.62,1210.91,373.72,1208.05,369.91,1205.84Z"/><path class="cls-5" d="M369.91,1146.14l-120.16-69.38c-7.61-4.39-20-4.39-27.56,0L102,1146.14c-3.81,2.2-5.7,5.06-5.7,7.95h0c0,2.87,1.89,5.76,5.7,8l24.28,14,95.89,55.36c7.6,4.39,19.95,4.39,27.56,0l95.88-55.36,24.28-14c3.81-2.19,5.71-5.08,5.71-8h0C375.62,1151.2,373.72,1148.34,369.91,1146.14Z"/><path class="cls-40" d="M369.91,1333l-24.28,14-95.88,55.35c-7.61,4.4-20,4.4-27.56,0L126.3,1347,102,1333c-3.81-2.19-5.7-5.08-5.7-8V1369c0,2.88,1.89,5.76,5.7,8l120.17,69.37c7.6,4.4,19.95,4.4,27.56,0L369.91,1377c3.81-2.21,5.71-5.09,5.71-8v-43.93C375.62,1327.93,373.72,1330.82,369.91,1333Z"/><line class="cls-8" x1="375.62" y1="1325.06" x2="375.62" y2="1325.05"/><rect class="cls-41" x="214.3" y="423.04" width="48.73" height="886.34"/><rect class="cls-42" x="136.09" y="766.65" width="28.49" height="518.12"/><rect class="cls-43" x="302.58" y="738.25" width="28.49" height="554.51"/><path class="cls-32" d="M2469.47,1549.49l-64.26-37.1a16.27,16.27,0,0,0-14.73,0l-64.26,37.1c-2,1.18-3.06,2.71-3.06,4.25h0c0,1.53,1,3.08,3.06,4.25l13,7.5,51.28,29.6a16.27,16.27,0,0,0,14.73,0l51.28-29.6,13-7.5c2-1.17,3.05-2.72,3.05-4.25h0C2472.52,1552.2,2471.51,1550.67,2469.47,1549.49Z"/><path class="cls-44" d="M2469.47,1462.48l-64.26-37.1a16.27,16.27,0,0,0-14.73,0l-64.26,37.1c-2,1.18-3.06,2.71-3.06,4.25h0c0,1.53,1,3.08,3.06,4.25l13,7.5,51.28,29.6a16.27,16.27,0,0,0,14.73,0l51.28-29.6,13-7.5c2-1.17,3.05-2.72,3.05-4.25h0C2472.52,1465.19,2471.51,1463.66,2469.47,1462.48Z"/><path class="cls-34" d="M2469.47,1438.19l-64.26-37.1a16.27,16.27,0,0,0-14.73,0l-64.26,37.1c-2,1.18-3.06,2.71-3.06,4.25h0c0,1.53,1,3.08,3.06,4.25l13,7.5,51.28,29.6a16.27,16.27,0,0,0,14.73,0l51.28-29.6,13-7.5c2-1.17,3.05-2.72,3.05-4.25h0C2472.52,1440.9,2471.51,1439.37,2469.47,1438.19Z"/><path class="cls-35" d="M2469.47,1403l-64.26-37.1a16.27,16.27,0,0,0-14.73,0l-64.26,37.1c-2,1.18-3.06,2.7-3.06,4.25h0c0,1.53,1,3.07,3.06,4.25l13,7.5,51.28,29.6a16.27,16.27,0,0,0,14.73,0l51.28-29.6,13-7.5c2-1.18,3.05-2.72,3.05-4.25h0C2472.52,1405.69,2471.51,1404.17,2469.47,1403Z"/><path class="cls-5" d="M2469.47,1371.06l-64.26-37.1a16.27,16.27,0,0,0-14.73,0l-64.26,37.1c-2,1.18-3.06,2.71-3.06,4.25h0c0,1.53,1,3.08,3.06,4.25l13,7.5,51.28,29.6a16.27,16.27,0,0,0,14.73,0l51.28-29.6,13-7.5c2-1.17,3.05-2.72,3.05-4.25h0C2472.52,1373.77,2471.51,1372.24,2469.47,1371.06Z"/><path class="cls-45" d="M2469.47,1471l-13,7.5-51.28,29.6a16.27,16.27,0,0,1-14.73,0l-51.28-29.6-13-7.5c-2-1.17-3.06-2.72-3.06-4.25v23.49c0,1.54,1,3.08,3.06,4.26l64.26,37.1a16.27,16.27,0,0,0,14.73,0l64.26-37.1c2-1.18,3.05-2.72,3.05-4.26v-23.49C2472.52,1468.27,2471.51,1469.82,2469.47,1471Z"/><line class="cls-8" x1="2472.52" y1="1466.74" x2="2472.52" y2="1466.73"/><rect class="cls-46" x="2329.31" y="1084.34" width="20.66" height="375.78"/><rect class="cls-47" x="2440.23" y="1029.08" width="20.66" height="375.78"/><rect class="cls-48" x="2382.12" y="758.75" width="38.25" height="695.72"/><path class="cls-49" d="M423.63,600.19A138.32,138.32,0,0,0,468,534.69c23.11-73.13-17.6-151.46-90.73-174.58a138.33,138.33,0,0,0-64.13-4.67A87,87,0,1,0,197.92,470.85c-10.73,66.9,29,133.56,95.45,154.57a138.39,138.39,0,0,0,83.16.16l.74,1,52.92,41.21ZM297.76,611.52a124.7,124.7,0,0,1-85.85-135.68,123.27,123.27,0,0,1,2.6-13.43l-2.55-.76a74.36,74.36,0,0,1-11.13-4.55,73.28,73.28,0,1,1,103.85-85,119.57,119.57,0,0,1,13.44-2.65,124.54,124.54,0,1,1-20.36,242.09Z"/><path class="cls-50" d="M367.76,389.19a106.1,106.1,0,0,0-71.45,2.68A62.27,62.27,0,1,0,234.87,454c-.81,2.08-1.57,4.18-2.26,6.33A109.09,109.09,0,0,0,230,517.62c0,.14.07.29.11.43q1.19,5.12,2.84,10.08a106.6,106.6,0,0,0,42.15,55.18l.14.1a103.24,103.24,0,0,0,16.61,8.93l.09,0c3.14,1.33,6.37,2.54,9.7,3.59s6.67,1.92,10,2.65h.06a105.21,105.21,0,0,0,18.74,2.24h.22A107.65,107.65,0,0,0,397.14,580q4.23-3.1,8.18-6.61l.32-.28a109.5,109.5,0,0,0,31.18-48.29C455.06,467.75,424.14,407,367.76,389.19Z"/><path class="cls-51" d="M362.52,577.16a5.44,5.44,0,0,0-.69,2.78,5.44,5.44,0,0,1,.69-2.78,3.38,3.38,0,0,0,1.6,2.43h0a3.35,3.35,0,0,1-1.6-2.42"/><path class="cls-51" d="M326,572.17c.13.42.27.84.43,1.25s.31.82.5,1.23a22.47,22.47,0,0,1-.93-2.48"/><path class="cls-51" d="M325.72,571.14l0,.06s0,0,0-.06"/><path class="cls-51" d="M351.05,567.88c0,10.49,5,20,14.61,22.57-9.58-2.6-14.64-12.07-14.61-22.57"/><path class="cls-51" d="M324.75,565.94v0c.08.72.18,1.46.31,2.21v0c.13.74.28,1.47.47,2.22v0c0,.21.11.41.17.62a33.48,33.48,0,0,1-1-5.13"/><path class="cls-51" d="M372.5,564.05c-.36.27-.73.53-1.09.78h0a12.73,12.73,0,0,0-2.55-.27,7.82,7.82,0,0,0-7.76,5.2,10.2,10.2,0,0,1-.15-1.73,10.2,10.2,0,0,0,.15,1.73,7.82,7.82,0,0,1,7.76-5.2,12.73,12.73,0,0,1,2.55.27c-1.28.9-2.56,1.77-3.81,2.63a12.23,12.23,0,0,0-1.81,1.5,9.6,9.6,0,0,0-2.32,6.49,9.6,9.6,0,0,1,2.32-6.49,12.23,12.23,0,0,1,1.81-1.5c1.25-.85,2.53-1.72,3.81-2.62v0c.37-.25.73-.51,1.09-.78"/><path class="cls-51" d="M374.82,562.34c-.65.5-1.31,1-2,1.46.29-.21.59-.42.88-.65l1.08-.81"/><path class="cls-51" d="M343.12,561.14c-.05,7-1.68,16.7-9.42,21.71l-.06,0a18.41,18.41,0,0,1-6.61-8l0,.09c.2.46.42.9.66,1.34.11.22.24.43.37.65a20.16,20.16,0,0,0,1.35,2c.15.21.32.42.5.63l.57.64c.35.38.73.75,1.12,1.1s.85.72,1.3,1.05a8,8,0,0,0,.7.49l.06,0c7.74-5,9.37-14.68,9.42-21.71"/><polyline class="cls-51" points="324.57 558.68 324.57 558.69 324.57 558.68"/><path class="cls-51" d="M380.2,557.75c-.58.55-1.17,1.1-1.77,1.63.29-.25.58-.5.86-.76l0,0c.3-.27.58-.54.87-.82"/><path class="cls-51" d="M324.88,555.16c-.07.53-.14,1.14-.19,1.81v0c0,.47-.08,1-.11,1.49.08-1.29.19-2.43.3-3.35"/><path class="cls-51" d="M325.07,553.86v0a.43.43,0,0,1,0,0"/><path class="cls-51" d="M325.26,552.74s-.05.23-.1.54c.06-.31.09-.5.1-.54"/><path class="cls-51" d="M357.69,548h0l-1,1.71,1-1.72"/><path class="cls-51" d="M300.28,542c0,2.56,2.72,3.71,2.72,3.71l22.27,7.05L303,545.68s-2.76-1.15-2.72-3.71"/><path class="cls-51" d="M360.9,541.66l-.09.25c-.13.31-.25.62-.38.92a47.4,47.4,0,0,1-2.74,5.18l-7.39,2.3,7.34-2.28.05,0a47.4,47.4,0,0,0,2.74-5.18c.17-.38.32-.78.47-1.17"/><path class="cls-51" d="M361,541.45s0,.07,0,.11,0-.08,0-.11"/><path class="cls-51" d="M330.54,515.6l.18,0-.18,0"/><path class="cls-51" d="M330.34,515.54l.12,0-.12,0"/><path class="cls-51" d="M333.5,498.59,333.41,516a15.29,15.29,0,0,1-2.69-.38,15.3,15.3,0,0,0,3.43.4,16,16,0,0,0,3-.29,15.36,15.36,0,0,1-3,.28c-.24,0-.48,0-.72,0l.09-17.43"/><path class="cls-51" d="M300.45,454.63l.06.1-.06-.1"/><path class="cls-51" d="M296.53,452.33a4.62,4.62,0,0,1,1.2.16,4.62,4.62,0,0,0-1.2-.16"/><path class="cls-51" d="M366.69,446.85a37.86,37.86,0,0,1,1.75,4.45c.09.37.18.74.27,1.13h0c-.09-.39-.18-.76-.27-1.13a37.86,37.86,0,0,0-1.75-4.45"/><path class="cls-51" d="M370.3,443.7l.38,0-.38,0"/><polyline class="cls-51" points="299.63 440.52 299.61 440.54 299.62 440.52"/><polyline class="cls-51" points="299.88 440.2 299.87 440.21 299.88 440.2"/><polyline class="cls-51" points="313.97 431.79 313.96 431.79 313.97 431.79"/><polyline class="cls-51" points="314.4 431.67 314.36 431.68 314.38 431.67"/><path class="cls-51" d="M314.83,431.55l-.07,0,.07,0"/><path class="cls-51" d="M315.24,431.44h0"/><path class="cls-51" d="M315.66,431.33l-.08,0,.08,0"/><polyline class="cls-51" points="316.06 431.22 316.05 431.23 316.06 431.22"/><polyline class="cls-51" points="316.49 431.12 316.47 431.13 316.49 431.12"/><path class="cls-51" d="M316.94,431h0"/><path class="cls-51" d="M317.43,430.9l-.12,0,.12,0"/><path class="cls-51" d="M317.89,430.8l-.16,0,.16,0"/><path class="cls-51" d="M318.33,430.71l-.21,0,.21,0"/><path class="cls-51" d="M318.74,430.62l-.21.05.21-.05"/><path class="cls-51" d="M319.16,430.54l-.22,0,.22,0"/><path class="cls-51" d="M319.57,430.46l-.22,0,.22,0"/><path class="cls-51" d="M320,430.39l-.22,0,.22,0"/><path class="cls-51" d="M320.4,430.31l-.21,0,.21,0"/><path class="cls-51" d="M291.84,429.94c.07,4.75,1.13,7.73,2.37,9.59-1.23-1.86-2.29-4.84-2.37-9.59"/><path class="cls-51" d="M357.47,430c-.09.23-.16.39-.2.48l0,0,0,0s-31.63,3.45-45.51,11.21a23.9,23.9,0,0,0-10.88,13,23.9,23.9,0,0,1,10.88-13c13.88-7.76,45.51-11.21,45.51-11.21l.25.33-.25-.33,0,0,0,0c0-.09.11-.25.2-.48"/><path class="cls-51" d="M357.71,429.35v0h0v0a59.4,59.4,0,0,1,10.39,12.86.56.56,0,0,0,0,.08.56.56,0,0,1,0-.08,59.4,59.4,0,0,0-10.39-12.86v0"/><path class="cls-51" d="M358.43,426.79a20.36,20.36,0,0,1-.69,2.48,20.36,20.36,0,0,0,.69-2.48"/><path class="cls-51" d="M358.47,426.63c0,.05,0,.1,0,.16s0-.11,0-.16"/><path class="cls-51" d="M358.51,426.44a.83.83,0,0,0,0,.15.83.83,0,0,1,0-.15"/><path class="cls-51" d="M358.54,426.26l0,.16,0-.16"/><path class="cls-51" d="M358.57,426.1a.2.2,0,0,0,0,0,.1.1,0,0,1,0,0"/><path class="cls-51" d="M358.85,419.89v0"/><path class="cls-51" d="M358.81,419.51a1.94,1.94,0,0,1,0,.24,1.94,1.94,0,0,0,0-.24"/><path class="cls-52" d="M296.53,452.33h-.07a4.12,4.12,0,0,0-1,.14,4.18,4.18,0,0,0-.9,1.41h0c-2.29,5.36-.12,19.25.79,21.75s6,2.64,7.07,2.64h.19c-.24-3-.43-6-.73-9a2.71,2.71,0,0,0,0-.4l-.92-13.56h0l-.15-.21a2.12,2.12,0,0,1-.11-.21c0-.06-.07-.11-.1-.16l-.06-.1a4.46,4.46,0,0,0-3.92-2.3"/><path class="cls-53" d="M372.59,451.8a5,5,0,0,0-2.4.7,5.46,5.46,0,0,0-1.63,1.44L367,469c0,.13,0,.26,0,.39-.29,2.74-.5,5.53-.75,8.32h.2c1.07,0,6.2-.12,7.13-2.61s3.24-16.47,1-21.8h0a4.83,4.83,0,0,0-.88-1.37,4.13,4.13,0,0,0-.94-.13h-.1"/><path class="cls-52" d="M357.22,430.52s-31.63,3.45-45.51,11.21a23.9,23.9,0,0,0-10.88,13l0,.61h0l.92,13.56a2.71,2.71,0,0,1,0,.4c.3,3,.49,6,.73,9,.7,8.5,1.86,16.93,7.18,23.91a32,32,0,0,0,4.61,4.91,40.15,40.15,0,0,0,15.77,8.39l.22,0,.12,0,.08,0,.18,0h0a15.29,15.29,0,0,0,2.69.38l.09-17.43a2.13,2.13,0,0,1,1.05-1.84h0a2.64,2.64,0,0,0,.62-1.6,2.42,2.42,0,0,0-.9-1.79,2.1,2.1,0,0,1-.7-1.54.49.49,0,0,1,0-.12c.06-1.42.15-3.92.17-6.18a30.85,30.85,0,0,0-.17-4.21,3.87,3.87,0,0,0-1.37-2.58,3.53,3.53,0,0,1-1.46-2.73v-.11a4.39,4.39,0,0,1,.13-1c.41-1.71,1.44-3.29,1.45-5l-.71-11.58A26,26,0,0,1,350,433.44l7.66-2.29-.21-.3-.25-.33"/><path class="cls-53" d="M357.68,431.15,350,433.44a26,26,0,0,0-18.4,24.84l.71,11.58c0,1.74-1,3.32-1.45,5a4.39,4.39,0,0,0-.13,1V476a3.53,3.53,0,0,0,1.46,2.73,3.87,3.87,0,0,1,1.37,2.58,30.85,30.85,0,0,1,.17,4.21c0,2.26-.11,4.76-.17,6.18a.49.49,0,0,0,0,.12,2.1,2.1,0,0,0,.7,1.54,2.42,2.42,0,0,1,.9,1.79,2.64,2.64,0,0,1-.62,1.6h0a2.13,2.13,0,0,0-1.05,1.84L333.41,516c.24,0,.48,0,.72,0a15.36,15.36,0,0,0,3-.28c.34-.07.69-.16,1-.25a40.66,40.66,0,0,0,15.5-8h0c.71-.59,1.39-1.2,2-1.84a33.84,33.84,0,0,0,3-3.35,26.69,26.69,0,0,0,2.45-3.74c3.47-6.35,4.38-13.59,5-20.82.25-2.79.46-5.58.75-8.32,0-.13,0-.26,0-.39l1.59-15.07.15-1.5h0c-.09-.39-.18-.76-.27-1.13a37.86,37.86,0,0,0-1.75-4.45,94.19,94.19,0,0,0-9-15.7"/><path class="cls-54" d="M300.39,541.13c-.54.32-1.11.61-1.68.89-11,5.36-28.14,8.42-47.79,13.34a10.76,10.76,0,0,0-3.23,1.4,106.63,106.63,0,0,0,56.74,40l.17.05a104.65,104.65,0,0,0,18.53,3.54h.08c3.41.33,6.85.52,10.34.52s6.94-.16,10.34-.47H344A104.58,104.58,0,0,0,362.5,597l.21-.06a107.59,107.59,0,0,0,57.15-39.79,10.45,10.45,0,0,0-3.21-1.42c-10.83-2.76-20.91-4.95-29.6-7.26a1.74,1.74,0,0,0-.1.19c-.12.26-.25.52-.37.77l-.28.54-.37.64-.11.2c-.13.22-.26.44-.41.67-.46.72-1,1.43-1.47,2.12l0,0-.41.52-.05.07-.13.16-.09.11-.16.2-.13.15-.05.06c-.84,1-1.75,2-2.7,2.9-.29.28-.57.55-.87.82l0,0c-.28.26-.57.51-.86.76-1.17,1-2.38,2-3.61,3l-1.08.81c-.29.23-.59.44-.88.65l-.36.25c-.36.27-.72.53-1.09.78v0c-1.28.9-2.56,1.77-3.81,2.62a12.23,12.23,0,0,0-1.81,1.5,9.6,9.6,0,0,0-2.32,6.49,12.84,12.84,0,0,0,.66,4.13h0a3.38,3.38,0,0,1-1.6-2.43,5.44,5.44,0,0,0-.69,2.78c0,4,3,9.18,3.83,10.51-9.58-2.61-14.65-12.08-14.61-22.57a34.08,34.08,0,0,1,1.48-9.75,37,37,0,0,1,4.12-8.4l1-1.71h0l-.05,0-7.34,2.28-7.86,2.45a46.08,46.08,0,0,1,.68,8.38c-.05,7-1.68,16.7-9.42,21.71l-.06,0a8,8,0,0,1-.7-.49c-.45-.33-.88-.68-1.3-1.05s-.77-.72-1.12-1.1l-.57-.64c-.18-.21-.35-.42-.5-.63a20.16,20.16,0,0,1-1.35-2c-.13-.22-.26-.43-.37-.65-.24-.44-.46-.88-.66-1.34l0-.09c0-.06,0-.11-.07-.16-.19-.41-.35-.82-.5-1.23s-.3-.83-.43-1.25-.2-.65-.29-1l0-.06s0,0,0-.07c-.06-.21-.12-.41-.17-.62v0c-.19-.75-.34-1.48-.47-2.22v0c-.13-.75-.23-1.49-.31-2.21v0a45.24,45.24,0,0,1-.18-7.25h0a1,1,0,0,0,0-.17c0-.53.07-1,.11-1.49v0c.05-.67.12-1.28.19-1.81l.18-1.25v0c0-.23.06-.42.09-.58s.09-.5.1-.54h0L303,545.68s-2.76-1.15-2.72-3.71a4.31,4.31,0,0,1,.11-.84"/><path class="cls-55" d="M314.35,507.1a65.53,65.53,0,0,1-.9,15.75,27,27,0,0,1-13.06,18.27h0a4.31,4.31,0,0,0-.11.84c0,2.56,2.72,3.71,2.72,3.71l22.27,7.05h0s0,.23-.1.54-.06.35-.09.58a.43.43,0,0,0,0,0l-.18,1.25c-.11.92-.22,2.06-.3,3.35a1,1,0,0,1,0,.17h0a45.24,45.24,0,0,0,.18,7.25,33.48,33.48,0,0,0,1,5.13s0,0,0,.07,0,0,0,.06c.09.32.19.65.29,1a22.47,22.47,0,0,0,.93,2.48c0,.05.05.1.07.16a18.41,18.41,0,0,0,6.61,8l.06,0c7.74-5,9.37-14.68,9.42-21.71a46.08,46.08,0,0,0-.68-8.38,7.3,7.3,0,0,1-2.14.32,7.84,7.84,0,0,1-2.4-.4h0a7,7,0,0,1-1.86-.93c-2.32-1.64-2.48-4.1-2.49-6.76q0-7.37-.07-14.72c0-.83,0-1.64,0-2.46a10,10,0,0,1,7-9.58c9.22-2.87,13.1-7.52,13.1-7.52,0-1.17.07-2.26.13-3.23a40.66,40.66,0,0,1-15.5,8c-.34.09-.69.18-1,.25a16,16,0,0,1-3,.29,15.3,15.3,0,0,1-3.43-.4h0l-.18,0-.08,0-.12,0-.22,0a40.15,40.15,0,0,1-15.77-8.39"/><path class="cls-53" d="M353.55,510.71s-3.88,4.65-13.1,7.52a10,10,0,0,0-7,9.58c0,.82,0,1.63,0,2.46q0,7.35.07,14.72c0,2.66.17,5.12,2.49,6.76a7,7,0,0,0,1.86.93h0a7.84,7.84,0,0,0,2.4.4,7.3,7.3,0,0,0,2.14-.32l7.86-2.45,7.39-2.3a47.4,47.4,0,0,0,2.74-5.18c.13-.3.25-.61.38-.92l.09-.25,0-.1s0-.08,0-.11a27.39,27.39,0,0,0,1.16-4.14,26.59,26.59,0,0,1-7.68-14.38,62.49,62.49,0,0,1-.91-12.22"/><path class="cls-56" d="M373.16,507.7a68.5,68.5,0,0,0-9.34-7.48c-.88-.58-1.77-1.14-2.68-1.68a26.69,26.69,0,0,1-2.45,3.74,32.61,32.61,0,0,1-3,3.35c4.78,9.36,8.52,21.11,6.42,31.68a27.39,27.39,0,0,1-1.16,4.14s0,.07,0,.11l0,.1c-.15.39-.3.79-.47,1.17a47.4,47.4,0,0,1-2.74,5.18l-1,1.72a37,37,0,0,0-4.12,8.4,34.08,34.08,0,0,0-1.48,9.75c0,10.5,5,20,14.61,22.57-.85-1.33-3.84-6.48-3.83-10.51a5.44,5.44,0,0,1,.69-2.78,3.35,3.35,0,0,0,1.6,2.42h0a12.84,12.84,0,0,1-.66-4.13,9.6,9.6,0,0,1,2.32-6.49,12.23,12.23,0,0,1,1.81-1.5c1.25-.86,2.53-1.73,3.81-2.63h0c.36-.25.73-.51,1.09-.78l.36-.25c.65-.48,1.31-1,2-1.46,1.23-1,2.44-1.93,3.61-3,.6-.53,1.19-1.08,1.77-1.63.95-.93,1.86-1.9,2.7-2.9l.05-.06.13-.15.16-.2.09-.11.13-.16.05-.07.41-.52,0,0a29,29,0,0,0,1.88-2.79l.11-.2c.23-.39.44-.78.65-1.18s.25-.51.37-.77l.1-.2a23.56,23.56,0,0,0,1.8-5.94C391,529.37,382.07,516.18,373.16,507.7Z"/><path class="cls-56" d="M357.47,430.85l.21.3a94.19,94.19,0,0,1,9,15.7,37.86,37.86,0,0,1,1.75,4.45c.09.37.18.74.27,1.13h0l-.15,1.5a5.38,5.38,0,0,1,1.64-1.44,4.89,4.89,0,0,1,2.39-.7h.1a4.13,4.13,0,0,1,.94.13,4.83,4.83,0,0,1,.88,1.37,71.07,71.07,0,0,0,2-11.52c.9-10-.78-20.11-7.64-28.26-6.25-7.4-14.88-6.75-15.84-7.42-11.3-8-20.51-11.11-28.24-11.12s-13.92,3-19.28,7.35a37.63,37.63,0,0,0-13.05,22.31c-.28,1.83-.51,3.57-.65,5.25v.05c.08,4.75,1.14,7.73,2.37,9.59-1.24-1.86-2.3-4.84-2.37-9.59-1.15,12.54,1.39,20.8,2.67,23.94a4.18,4.18,0,0,1,.9-1.41,4.23,4.23,0,0,1,1-.14h.07a4.46,4.46,0,0,1,3.92,2.3l.06.09.1.17a2.12,2.12,0,0,0,.11.21l.15.21,0-.61a23.9,23.9,0,0,1,10.88-13c13.88-7.76,45.51-11.21,45.51-11.21Zm.23-1.47v0Z"/><circle class="cls-57" cx="233.91" cy="391.17" r="52.07" transform="translate(-221.37 370.08) rotate(-56.47)"/><g class="cls-58"><path class="cls-2" d="M219.2,387.85a5.17,5.17,0,1,1-5-5.29A5.16,5.16,0,0,1,219.2,387.85Z"/><path class="cls-2" d="M239.92,388.35a6.4,6.4,0,1,1-6.24-6.55A6.41,6.41,0,0,1,239.92,388.35Z"/><path class="cls-2" d="M257.9,388.78a5.24,5.24,0,1,1-5.11-5.37A5.23,5.23,0,0,1,257.9,388.78Z"/></g><path class="cls-59" d="M2433.18,52.32A59.85,59.85,0,0,0,2388.85,72a95.68,95.68,0,0,0-130.32,124.69l-24.09,39.75,45.08-9.79.33-.16a62.22,62.22,0,0,0,11.39,9.57,95.66,95.66,0,0,0,149.23-64.48,59.84,59.84,0,0,0-7.29-119.23Zm8.23,109.61a50.6,50.6,0,0,1-8.23.67c-.62,0-1.24,0-1.83,0a83,83,0,0,1-1.1,9.36,85.67,85.67,0,1,1-47.59-91.83,81.37,81.37,0,0,1,8.25,4.53,51.92,51.92,0,0,1,6.33-7.85,50.44,50.44,0,1,1,44.17,85.14Z"/><path class="cls-50" d="M2346,82.79a73,73,0,0,1,46.31,16.56,42.81,42.81,0,1,1,27.42,53.48c.1,1.53.17,3.07.17,4.62a74.92,74.92,0,0,1-10.19,38.13l-.15.26q-1.84,3.1-4,6a73.41,73.41,0,0,1-39.09,27.47l-.11,0a71.45,71.45,0,0,1-12.75,2.41h-.06c-2.34.22-4.71.35-7.11.35s-4.77-.13-7.11-.34h0a72.63,72.63,0,0,1-12.76-2.41l-.15-.05a74,74,0,0,1-39.26-27.45c-1.42-1.94-2.76-4-4-6l-.15-.25a75.4,75.4,0,0,1-10.44-38.13C2272.44,116.22,2305.31,82.79,2346,82.79Z"/><circle class="cls-60" cx="2433.38" cy="111.83" r="35.54" transform="translate(2309.75 2544.64) rotate(-89.72)"/><g class="cls-58"><path class="cls-2" d="M2429.85,110a4.4,4.4,0,1,0,4.4-4.4A4.4,4.4,0,0,0,2429.85,110Z"/><path class="cls-2" d="M2417.75,110a3.33,3.33,0,1,0,3.33-3.32A3.33,3.33,0,0,0,2417.75,110Z"/><path class="cls-2" d="M2444,110a3.33,3.33,0,1,0,3.33-3.32A3.33,3.33,0,0,0,2444,110Z"/></g><g id="ÎË_Ó_4_" data-name="ÎËˆÓ_4_"><path class="cls-52" d="M2322.3,186.86c.57.85,7.1,10.28,19.14,12.44a28.61,28.61,0,0,0,5,.45,30.61,30.61,0,0,0,5.17-.45c12-2.22,18.46-11.65,19.08-12.44-.34-.57-.74-1.31-1.13-2.05a41.73,41.73,0,0,1-5.29-15.56,2,2,0,0,0-.39.34c-.23.23-.51.46-.74.68s-.57.46-.8.63l-.05,0a8,8,0,0,1-.74.63c-.12.11-.29.23-.4.34s-.28.23-.45.34a5.77,5.77,0,0,1-.69.57c-.17.17-.39.28-.56.45-.52.4-1.08.8-1.59,1.2l-.8.62c-.23.17-.51.34-.74.51-.74.51-1.42,1-2,1.31V177c-.06,0-.12.06-.17.06a1.51,1.51,0,0,1-.4.23c-.06.05-.11.11-.17.11a.21.21,0,0,0-.12.06h-.05a.43.43,0,0,1-.29.11v.06h0c-.06.06-.17.06-.29.11a5.38,5.38,0,0,1-.62.17c0,.06-.06.06-.17.06s-.23.06-.34.11h-.06l-1.76.34a2.22,2.22,0,0,0-.51.06h-.23c-.23,0-.4.06-.62.06h-.4a.48.48,0,0,1-.28.06H2345a.43.43,0,0,1-.28-.06h-.23a14.73,14.73,0,0,1-1.48-.11c-.11,0-.23-.06-.34-.06l-.74-.17h-.06a7.48,7.48,0,0,1-1-.23,3.21,3.21,0,0,1-.68-.23.9.9,0,0,0-.34-.11,1.14,1.14,0,0,1-.28-.17h-.06c-.06-.06-.17-.11-.23-.17a1.05,1.05,0,0,1-.4-.23,2.21,2.21,0,0,1-.45-.28l-.11-.06-.57-.4a1.09,1.09,0,0,1-.34-.22c-.46-.34-1-.69-1.54-1.08l-.68-.51a3.56,3.56,0,0,1-.51-.4.17.17,0,0,1-.11-.06l-1.42-1.08-.12-.11a6,6,0,0,1-.73-.57l-.12-.11c-.11-.12-.28-.23-.4-.34s-.16-.12-.28-.18-.28-.22-.4-.34-.39-.34-.57-.45c-.51-.45-1-.85-1.41-1.19l-.63-.63-.17,1.42,6.93,6.71a15.14,15.14,0,0,0,6.87,3.74c.06,0,.17.06.23.06l1.76.34a2.81,2.81,0,0,1,1.65,1,2.25,2.25,0,0,1,.51.85,1.84,1.84,0,0,1,.23,1v7.33a2.42,2.42,0,0,1-.74,1.76,2.48,2.48,0,0,1-1.76.74h-.12c-.05,0-.11-.06-.17-.06a18,18,0,0,1-8.52-2.78,18.3,18.3,0,0,1-7.61-14.09l-.17,1S2323.89,183.85,2322.3,186.86Z"/><path class="cls-54" d="M2284.41,197.48a72.62,72.62,0,0,0,42.72,32,70.12,70.12,0,0,0,12.49,2.33c.51.05,1,.05,1.54.11,1.81.11,3.63.23,5.45.23,2.39,0,4.71-.12,7-.34a72.61,72.61,0,0,0,54.93-34.37l-37.89-10.56c-.62.79-7.1,10.22-19.08,12.44a30.61,30.61,0,0,1-5.17.45,28.61,28.61,0,0,1-5-.45c-12-2.16-18.57-11.59-19.14-12.44Z"/><path class="cls-53" d="M2320.71,152a1.71,1.71,0,0,0,1.7,1.08,3.59,3.59,0,0,0,1.2-.23,1.44,1.44,0,0,0,0,.46c0,2.1.12,4.43.23,6.47a19.42,19.42,0,0,0,.68,4.94,6.14,6.14,0,0,0,.85,1.19.8.8,0,0,0,.17.23c.12.12.23.29.4.46a1.24,1.24,0,0,0,.23.17.7.7,0,0,0,.17.22l1,1a7.88,7.88,0,0,0,.69.63l.34.34s0,.05.11.05l.63.63c.45.34.9.74,1.41,1.19.18.11.35.28.57.45s.29.23.4.34.17.12.28.18.29.22.4.34l.12.11a6,6,0,0,0,.73.57l.12.11,1.42,1.08a.17.17,0,0,0,.11.06,3.56,3.56,0,0,0,.51.4l.68.51c.52.39,1.08.74,1.54,1.08a1.09,1.09,0,0,0,.34.22l.57.4.11.06a2.21,2.21,0,0,0,.45.28,1.05,1.05,0,0,0,.4.23c.06.06.17.11.23.17h.06a1.14,1.14,0,0,0,.28.17.9.9,0,0,1,.34.11,3.21,3.21,0,0,0,.68.23,7.48,7.48,0,0,0,1,.23h.06l.74.17c.11,0,.23.06.34.06a14.73,14.73,0,0,0,1.48.11h.23a.43.43,0,0,0,.28.06h1.65l-.06-10.74v-9l-.06-4v-1.76l4.15-.4a1.22,1.22,0,0,0,1.08-1.19v-1.31a1.16,1.16,0,0,0-.23-.74l-2.21-2.1L2347.92,137a1.38,1.38,0,0,0-.86-1.07c-2.1-1-8.46-4.09-13-6.59l-4.49,1.36c.51-1,1-2.05,1.42-3.07a.9.9,0,0,0-.34-.11,24,24,0,0,0-7,12.95v.79c0,1.6,0,3.19-.17,4.78l-.28-1.31v-.12a.65.65,0,0,1-.06-.33l-.23-1-1.19-5.68-.11-.51a2,2,0,0,0-.57-.06,2.43,2.43,0,0,0-2.39,2C2317.92,143.12,2320.2,150.56,2320.71,152Z"/><path class="cls-52" d="M2350.7,152.72l-4.15.4v1.76l.06,4v9l.06,10.74h1.08a.48.48,0,0,0,.28-.06h.4c.22,0,.39-.06.62-.06h.23a2.22,2.22,0,0,1,.51-.06l1.76-.34h.06c.11-.05.23-.05.34-.11s.17,0,.17-.06a5.38,5.38,0,0,0,.62-.17c.12-.05.23-.05.29-.11h0v-.06a.43.43,0,0,0,.29-.11h.05a.21.21,0,0,1,.12-.06c.06,0,.11-.06.17-.11a1.51,1.51,0,0,0,.4-.23s.11-.06.17-.06v-.05c.62-.34,1.3-.8,2-1.31.23-.17.51-.34.74-.51l.8-.62c.51-.4,1.07-.8,1.59-1.2.17-.17.39-.28.56-.45a5.77,5.77,0,0,0,.69-.57c.17-.11.28-.23.45-.34s.28-.23.4-.34a8,8,0,0,0,.74-.63l.05,0c.23-.17.51-.4.8-.63s.51-.45.74-.68a2,2,0,0,1,.39-.34,1,1,0,0,1,.23-.23c.28-.22.51-.51.8-.74l.34-.34a15.49,15.49,0,0,0,2.61-3.06.21.21,0,0,1,.06-.12c1-2,.73-7.66,1.13-11.87a4.33,4.33,0,0,0,1.31.23,1.65,1.65,0,0,0,1.65-1.08c.56-1.48,2.72-8.92,2-12.95a2.42,2.42,0,0,0-2.38-2,2.32,2.32,0,0,0-1.19.34l-.29,1.25v.12l-.4,1.87a14.44,14.44,0,0,0-1.13-4.6,16.17,16.17,0,0,0-5.4-7.21,2.87,2.87,0,0,1-1.08-1.25,2.11,2.11,0,0,1,.17-1.43,3.16,3.16,0,0,0,.51-1.7,40.87,40.87,0,0,1-16.92,2.78l4.14-3.8A55.12,55.12,0,0,1,2338.6,128c-.68.23-1.36.4-2,.63-.86.22-1.65.51-2.5.74,4.54,2.5,10.9,5.56,13,6.59a1.38,1.38,0,0,1,.86,1.07l1.42,10.34,2.21,2.1a1.16,1.16,0,0,1,.23.74v1.31A1.22,1.22,0,0,1,2350.7,152.72Zm-20-25.16a.9.9,0,0,1,.34.11,5.87,5.87,0,0,0,.4-.79C2331.16,127.1,2330.88,127.33,2330.65,127.56Zm-7.44,17.09v.12l.28,1.31c.12-1.59.17-3.18.17-4.78v-.73A20.23,20.23,0,0,0,2323.21,144.65Z"/><path class="cls-53" d="M2328.31,170.47l0-.26,6.92,6.92a14.75,14.75,0,0,0,6.86,3.77l.23,0c.53.13,1.12.25,1.76.37a2.84,2.84,0,0,1,2.35,2.76l0,7.35a2.47,2.47,0,0,1-2.49,2.45h-.27A17.08,17.08,0,0,1,2327.56,177h0l.09-.8.66-5.67"/><path class="cls-61" d="M2319.8,127.22c.28,1.31,1.48,7.44,1.65,9.2l.11.51.06.23.11.51,1.19,5.68.23,1a.65.65,0,0,0,.06.33,20.23,20.23,0,0,1,.45-4.08v-.06a24,24,0,0,1,7-12.95c.23-.23.51-.46.74-.68a5.87,5.87,0,0,1-.4.79c-.46,1-.91,2-1.42,3.07l4.49-1.36c.85-.23,1.64-.52,2.5-.74.68-.23,1.36-.4,2-.63a55.12,55.12,0,0,0,11.81-4.54l-4.14,3.8a40.87,40.87,0,0,0,16.92-2.78,3.16,3.16,0,0,1-.51,1.7,2.11,2.11,0,0,0-.17,1.43,2.87,2.87,0,0,0,1.08,1.25,16.17,16.17,0,0,1,5.4,7.21,14.44,14.44,0,0,1,1.13,4.6l.4-1.87v-.12l.29-1.25.05-.34,2.1-17.89a5.82,5.82,0,0,0,.06-1,17.86,17.86,0,0,0-.34-2.39,20.57,20.57,0,0,0-2.21-5.73c-.06-.06-.12-.18-.18-.23s-.05-.06-.11-.12a.05.05,0,0,0-.06,0,13,13,0,0,0-7.21-5.91,11.22,11.22,0,0,0,.28,1.25c.18,1,.4,2,.63,3a39,39,0,0,0-5.17-4,.06.06,0,0,0-.06-.06A42.69,42.69,0,0,0,2343,97.68h-.11A38.73,38.73,0,0,0,2334,97a27.37,27.37,0,0,0,1.59,2.84c.45.73.91,1.41,1.42,2.1a27.1,27.1,0,0,0-12.15,6.64,22.69,22.69,0,0,0-1.6,1.65,21.64,21.64,0,0,0-1.47,1.82l-.06,0a11.28,11.28,0,0,0-.91,1.31l.57-.17c.85-.28,1.65-.51,2.5-.74a15.2,15.2,0,0,0-3.52,5.68A16.55,16.55,0,0,0,2319.8,127.22Z"/></g><path class="cls-62" d="M949.24,1269.36l-56.4,3.84-.17,0a107.88,107.88,0,0,0-132.94-29.11,67.55,67.55,0,1,0-58.28,112.41,108,108,0,0,0,168.48,72.78,110.74,110.74,0,0,0,28.93-29.82,107.9,107.9,0,0,0,14-86.13Zm-140.93,168a96.76,96.76,0,0,1-96.55-90.95c-.69,0-1.38,0-2.07,0a58.26,58.26,0,0,1-9.3-.76,56.95,56.95,0,1,1,49.86-96.12,56.42,56.42,0,0,1,7.14,8.86,90.77,90.77,0,0,1,9.34-5.11,96.72,96.72,0,1,1,41.58,184Z"/><path class="cls-50" d="M808.1,1256.34a82.33,82.33,0,0,0-52.28,18.7,48.34,48.34,0,1,0-31,60.37c-.11,1.72-.19,3.46-.19,5.21a84.64,84.64,0,0,0,11.5,43.05c.06.09.12.2.18.3,1.39,2.33,2.87,4.6,4.46,6.79a82.8,82.8,0,0,0,44.13,31l.13,0a80.42,80.42,0,0,0,14.39,2.73h.07c2.64.26,5.32.4,8,.4s5.39-.14,8-.39h0a81,81,0,0,0,14.41-2.72l.16,0a83.58,83.58,0,0,0,44.33-31c1.6-2.19,3.11-4.46,4.51-6.8.05-.1.11-.19.17-.29a85,85,0,0,0,11.78-43C891.14,1294.08,854,1256.34,808.1,1256.34Z"/><circle class="cls-63" cx="709.45" cy="1289.12" r="38.06" transform="translate(-643.3 1868.1) rotate(-84.35)"/><g class="cls-58"><path class="cls-2" d="M697,1287a3.7,3.7,0,1,1-3.7-3.71A3.7,3.7,0,0,1,697,1287Z"/><path class="cls-2" d="M713.44,1287a5,5,0,1,1-5-5A5,5,0,0,1,713.44,1287Z"/><path class="cls-2" d="M727.29,1287a3.95,3.95,0,1,1-3.95-4A3.95,3.95,0,0,1,727.29,1287Z"/></g><path class="cls-52" d="M778.6,1311.28h-.07a3.11,3.11,0,0,0-.73.08l-.06,0a5.14,5.14,0,0,0-1.19,2.76c-.88,4.75.52,13.16,1.14,14.84a3,3,0,0,0,2.09,1.56,12.08,12.08,0,0,0,2.43.41l.9,0h.11c-.19-2.19-.33-4.39-.55-6.53a2.77,2.77,0,0,0,0-.3l-.77-10.77a3.59,3.59,0,0,0-2.8-2.08,3.94,3.94,0,0,0-.47,0"/><path class="cls-52" d="M816.72,1288.25v0a3.93,3.93,0,0,1-2.24,3c-4.08,2-15.52,7.47-24.19,12.24a18.3,18.3,0,0,0-8.41,9.88l.77,10.77a2.77,2.77,0,0,1,0,.3c.22,2.14.36,4.34.55,6.53.55,6.55,1.42,13.08,5.62,18.46a25.65,25.65,0,0,0,3.58,3.71,31.14,31.14,0,0,0,12.21,6.35,11.85,11.85,0,0,0,1.53.31l.05-13.26.24-.61a2.07,2.07,0,0,0,.16-.52,2.58,2.58,0,0,0-.73-2.33l-.24-.2,0,0-.11-.07h0a64.13,64.13,0,0,0,.48-6.49,5.84,5.84,0,0,0-.45-3,3.83,3.83,0,0,0-2.06-1,1.93,1.93,0,0,1-1.55-1.89,1.72,1.72,0,0,1,0-.39,9.69,9.69,0,0,1,1.07-2.68l0-7.61c.11-13.26,3.64-18,5.78-19.69,2.37-1.83,4.72-3.67,6.94-5.69l2.44-2.21,0,0a7.39,7.39,0,0,1-1.51-3.91"/><path class="cls-53" d="M837.1,1311.06a3.23,3.23,0,0,0-.72.08,3.37,3.37,0,0,0-2,1.27l-1.23,11.74c0,.11,0,.2,0,.3-.23,2.08-.39,4.2-.57,6.31h.09a11.93,11.93,0,0,0,1.44-.08l.24,0a10.84,10.84,0,0,0,1.17-.22,3.29,3.29,0,0,0,2.47-1.66c.71-1.93,2.5-12.6.72-16.61a3.16,3.16,0,0,0-.66-1,3.19,3.19,0,0,0-.73-.11h-.14"/><path class="cls-64" d="M805.64,1342.89h0v0S805.62,1342.88,805.64,1342.89Z"/><path class="cls-64" d="M805.49,1342.79h0a64.06,64.06,0,0,0,.48-6.49A64.13,64.13,0,0,1,805.49,1342.79Z"/><path class="cls-64" d="M838.7,1382.05c-10.11,10.16-20.32,13.63-29.49,13.68C818.38,1395.68,828.59,1392.21,838.7,1382.05Z"/><path class="cls-65" d="M847,1316.07c-1.55-4.66-4.21-8.9-6.28-13.31a.86.86,0,0,1,0,.17,23.17,23.17,0,0,0,.24-3.08c0-11.89-10.52-25-15-27.71a9.37,9.37,0,0,0-4.85-1.21,16.83,16.83,0,0,0-5.74,1.1c-4.3-4-9.93-4.59-13-4.6a18.88,18.88,0,0,0-2.14.12h-.28c-6,0-22.6,16-22.6,16-4.82,5.5-4.32,14.16-2.93,21.41-.07-.33-.15-.62-.21-1-2,4-4.39,7.88-5.76,12.12a30.81,30.81,0,0,0-.09,18.9c3.35,10.34,12.12,19,12.81,29.83a39.43,39.43,0,0,1-.43,7.71,19.85,19.85,0,0,1-1.89,7.21,3.32,3.32,0,0,1,.94-.08,3.78,3.78,0,0,1,.61.08,20.82,20.82,0,0,0,11.43-14.58,42.24,42.24,0,0,0,.68-6.44,16,16,0,0,0,.09-2c0-1.36-.09-2.46-.09-3.48a25.34,25.34,0,0,1-3.61-3.73c-4.21-5.42-5.07-12-5.58-18.47h-1a13.09,13.09,0,0,1-2.4-.43,3.25,3.25,0,0,1-2.15-1.61c-.6-1.69-2-10.06-1.12-14.81a5.14,5.14,0,0,1,1.19-2.76l.06,0a3.11,3.11,0,0,1,.73-.08h.07a3.94,3.94,0,0,1,.47,0,3.59,3.59,0,0,1,2.8,2.08,18.3,18.3,0,0,1,8.41-9.88c8.67-4.77,20.11-10.29,24.19-12.24a3.93,3.93,0,0,0,2.24-3v0a7.56,7.56,0,0,0,1.52,3.91c.95,1.11,10.74,10.1,13.63,13.52l.14.17.06.08a4.71,4.71,0,0,1,.52.71h0a16.93,16.93,0,0,1,1.63,4c.08.28.15.57.21.86h0l-.08.85a3.37,3.37,0,0,1,2-1.27,3.23,3.23,0,0,1,.72-.08h.14a3.19,3.19,0,0,1,.73.11,3.08,3.08,0,0,1,.64,1v0c1.81,4,0,14.66-.69,16.61-.34.94-1.37,1.36-2.49,1.7a6.2,6.2,0,0,1-1.2.17h-.17a12.91,12.91,0,0,1-1.47.08h-.08c-.6,6.7-1.46,13.31-5.76,18.73a28,28,0,0,1-3.87,3.9,17.39,17.39,0,0,0-.08,2v3.3a43.45,43.45,0,0,0,.68,6.44,20.48,20.48,0,0,0,9.8,13.73,13.08,13.08,0,0,0,1.46.85h.43a3.54,3.54,0,0,1,1.46.25c-1.29-2.2-1.63-4.83-2-7.45a47,47,0,0,1-.43-7.72c.68-10.85,9.54-19.49,12.8-29.83A30.23,30.23,0,0,0,847,1316.07Zm-8.18-4.55c.26-1.24.61-2.58,1-4C839.39,1308.94,839.05,1310.27,838.77,1311.52Z"/><path class="cls-53" d="M810.18,1359.66h0m.52-.11-.31.07.31-.07m7.51-67.41-2.44,2.21c-2.22,2-4.57,3.86-6.94,5.69-2.14,1.68-5.67,6.43-5.78,19.69l0,7.61A9.69,9.69,0,0,0,802,1330a1.72,1.72,0,0,0,0,.39,1.93,1.93,0,0,0,1.55,1.89,3.83,3.83,0,0,1,2.06,1,5.84,5.84,0,0,1,.45,3,64.06,64.06,0,0,1-.48,6.49h0l.11.07,0,0h0l.25.21a2.58,2.58,0,0,1,.73,2.33,2.07,2.07,0,0,1-.16.52l-.24.61-.05,13.26h0l.44,0c.37,0,.75.05,1.13.05h.54l.59-.05a11,11,0,0,0,1.15-.17h0l.63-.13.18,0,.91-.27c.44-.13.89-.27,1.32-.42.85-.3,1.7-.62,2.53-1,.52-.23,1-.47,1.54-.73a30.29,30.29,0,0,0,5.69-3.72h0a25.81,25.81,0,0,0,3.87-4c4.27-5.44,5.17-12,5.76-18.68.18-2.11.34-4.23.57-6.31,0-.1,0-.19,0-.3l1.23-11.74.08-.85h0c-.06-.29-.13-.57-.21-.86a17.27,17.27,0,0,0-1.63-4h0a5,5,0,0,0-.52-.71l-.06-.08-.14-.17c-2.89-3.42-12.68-12.41-13.63-13.52l0,0"/><path class="cls-53" d="M810.7,1359.55l-.63.13h.11l.18,0h0l.31-.07"/><path class="cls-55" d="M839.21,1381.58a5.55,5.55,0,0,0-1.8-1.44,6.67,6.67,0,0,0-2.24-.42h-.43a13.08,13.08,0,0,1-1.46-.85,35.52,35.52,0,0,1-16.5,8.65,8.8,8.8,0,0,1-2.15.25A9.71,9.71,0,0,1,805,1378c.09-1.18.09-2.37.09-3.56,0-2.71,0-5.08-.09-6.18v-.51a4.57,4.57,0,0,1,2.58-4.15,31.64,31.64,0,0,0,15.22-8.22,17.39,17.39,0,0,1,.08-2,31.19,31.19,0,0,1-5.67,3.73l-1.55.76c-.86.34-1.72.68-2.58.93a7.23,7.23,0,0,1-1.29.43c-.34.08-.6.17-.94.25,0,.09-.09.09-.17.09s-.18.08-.26.08h-.35v.09a5.51,5.51,0,0,0-1.2.17h-2.23a3.41,3.41,0,0,1-.43-.09h-.09a8.79,8.79,0,0,1-1.46-.34,30.83,30.83,0,0,1-12.21-6.27c0,1,.09,2.12.09,3.48a16,16,0,0,1-.09,2,42.24,42.24,0,0,1-.68,6.44,20.82,20.82,0,0,1-11.43,14.58,3.78,3.78,0,0,0-.61-.08,4.33,4.33,0,0,0-2,.42,4.84,4.84,0,0,0-1.81,1.52c-2,.68-4,1.36-6.36,2,2.06,2.37,15.13,17.54,37.39,17.8,23.12.25,36.87-15.85,38.51-17.89C843.25,1382.94,841.1,1382.26,839.21,1381.58Z"/><path class="cls-54" d="M873.85,1391.41A83.75,83.75,0,0,1,830,1421.33h-.18a88.47,88.47,0,0,1-14.35,2.71h-.09c-2.57.17-5.24.34-8,.34s-5.33-.17-8-.34h-.09a88.47,88.47,0,0,1-14.35-2.71h-.09a82.58,82.58,0,0,1-43.66-29.92,10.25,10.25,0,0,1,4.12-1.94c9-2.21,17.28-3.9,24.24-5.85,2.06,2.37,15.13,17.54,37.39,17.8,23.12.25,36.87-15.85,38.51-17.89,6.87,2,15.21,3.73,24.24,5.93A10.33,10.33,0,0,1,873.85,1391.41Z"/><path class="cls-53" d="M822.78,1355.44a31.21,31.21,0,0,1-15.17,8.14,4.76,4.76,0,0,0-2.64,4.23,3.77,3.77,0,0,0,0,.47c.07,1.07.09,3.43.08,6.17,0,1.16,0,2.38,0,3.61a9.63,9.63,0,0,0,9.61,9.68,10.16,10.16,0,0,0,2.17-.24,35.6,35.6,0,0,0,16.46-8.6,20.31,20.31,0,0,1-9.79-13.78,43.83,43.83,0,0,1-.69-6.38l0-1.12c0-.57,0-1.11,0-1.64,0-.18,0-.37,0-.54"/><path class="cls-8" d="M840.67,1302.76v-.08a30.79,30.79,0,0,1-2.23-5.17"/><path class="cls-66" d="M3294.44,1136.73,2958.09,942.54c-69.13-39.91-181.6-39.9-250.73,0l-480.11,277.19c-69.12,39.91-69.12,104.85,0,144.76l441.16,254.71H2997l297.4-171.71Z"/></g></g></g></svg>